M48
; DRILL file {KiCad (6.0.8)} date Tue Sep  5 09:21:00 2023
; FORMAT={-:-/ absolute / metric / decimal}
; #@! TF.CreationDate,2023-09-05T09:21:00+09:00
; #@! TF.GenerationSoftware,Kicad,Pcbnew,(6.0.8)
; #@! TF.FileFunction,MixedPlating,1,2
FMAT,2
METRIC
; #@! TA.AperFunction,Plated,PTH,ViaDrill
T1C0.400
; #@! TA.AperFunction,Plated,PTH,ComponentDrill
T2C0.800
; #@! TA.AperFunction,Plated,PTH,ComponentDrill
T3C0.900
; #@! TA.AperFunction,Plated,PTH,ComponentDrill
T4C0.940
; #@! TA.AperFunction,Plated,PTH,ComponentDrill
T5C1.000
; #@! TA.AperFunction,Plated,PTH,ComponentDrill
T6C1.100
; #@! TA.AperFunction,Plated,PTH,ComponentDrill
T7C1.300
; #@! TA.AperFunction,NonPlated,NPTH,ComponentDrill
T8C3.200
%
G90
G05
T1
X121.412Y-98.298
X126.16Y-109.825
X127.0Y-98.298
X128.7Y-102.634
T2
X89.662Y-81.28
X89.662Y-91.44
X92.456Y-95.504
X92.456Y-105.664
X92.71Y-71.12
X92.71Y-81.28
X93.98Y-60.706
X93.98Y-65.706
X104.902Y-73.66
X104.902Y-78.994
X104.902Y-90.17
X104.902Y-104.648
X104.902Y-107.696
X104.902Y-113.03
X104.902Y-117.856
X105.156Y-82.55
X112.268Y-54.102
X115.062Y-73.66
X115.062Y-78.994
X115.062Y-90.17
X115.062Y-104.648
X115.062Y-107.696
X115.062Y-113.03
X115.062Y-117.856
X115.316Y-82.55
X117.856Y-82.296
X117.856Y-92.456
X117.856Y-95.504
X117.856Y-105.664
X122.428Y-54.102
X127.508Y-116.078
X127.508Y-126.238
X127.508Y-130.556
X127.508Y-140.716
X132.08Y-116.84
X132.08Y-119.38
X132.08Y-121.92
X132.08Y-124.46
X132.09Y-81.026
X132.09Y-83.566
X132.09Y-86.106
X132.09Y-88.646
X132.09Y-93.228
X132.09Y-95.768
X132.09Y-98.308
X132.09Y-100.848
X132.09Y-132.852
X132.09Y-135.392
X132.09Y-137.932
X132.09Y-140.472
X138.684Y-60.706
X138.684Y-65.706
X139.7Y-116.84
X139.7Y-119.38
X139.7Y-121.92
X139.7Y-124.46
X139.71Y-81.026
X139.71Y-83.566
X139.71Y-86.106
X139.71Y-88.646
X139.71Y-93.228
X139.71Y-95.768
X139.71Y-98.308
X139.71Y-100.848
X139.71Y-132.852
X139.71Y-135.392
X139.71Y-137.932
X139.71Y-140.472
X141.986Y-116.332
X141.986Y-119.888
X141.986Y-132.334
X141.986Y-135.382
X144.526Y-67.564
X144.526Y-77.724
X144.526Y-81.026
X144.526Y-83.026
X144.526Y-93.279
X144.526Y-95.279
X148.336Y-67.564
X148.336Y-77.724
X152.146Y-116.332
X152.146Y-119.888
X152.146Y-132.334
X152.146Y-135.382
X154.94Y-53.34
X154.94Y-63.5
X154.94Y-68.58
X154.94Y-78.74
X163.078Y-118.359
X163.078Y-120.899
X163.078Y-123.439
X163.078Y-125.979
X163.078Y-128.519
X163.078Y-131.059
X163.078Y-133.599
X170.698Y-118.359
X170.698Y-120.899
X170.698Y-123.439
X170.698Y-125.979
X170.698Y-128.519
X170.698Y-131.059
X170.698Y-133.599
T3
X84.328Y-81.026
X86.868Y-81.026
X155.448Y-132.842
X155.448Y-135.382
X155.702Y-116.586
X155.702Y-119.126
T4
X98.208Y-74.041
X98.208Y-76.581
X98.208Y-79.121
X98.208Y-86.487
X98.208Y-89.027
X98.208Y-91.567
X98.208Y-99.06
X98.208Y-101.6
X98.208Y-104.14
X98.208Y-111.506
X98.208Y-114.046
X98.208Y-116.586
T5
X90.683Y-137.86
X90.683Y-140.4
X93.223Y-137.86
X93.223Y-140.4
X95.763Y-137.86
X95.763Y-140.4
X98.303Y-137.86
X98.303Y-140.4
X100.843Y-137.86
X100.843Y-140.4
X103.383Y-137.86
X103.383Y-140.4
X105.664Y-61.214
X105.664Y-66.214
X105.923Y-137.86
X105.923Y-140.4
X108.463Y-137.86
X108.463Y-140.4
X111.003Y-137.86
X111.003Y-140.4
X113.543Y-137.86
X113.543Y-140.4
X116.083Y-137.86
X116.083Y-140.4
X118.623Y-137.86
X118.623Y-140.4
X128.016Y-61.214
X128.016Y-66.214
T6
X114.554Y-61.905
X117.094Y-61.905
X119.634Y-61.905
T7
X81.534Y-86.106
X81.534Y-91.186
X81.996Y-128.773
X81.996Y-133.853
X170.18Y-76.454
X170.18Y-81.534
X170.18Y-86.614
X170.226Y-60.965
X170.226Y-66.045
X170.226Y-71.125
T8
X79.756Y-54.356
X79.756Y-147.066
X172.466Y-54.356
X172.466Y-147.066
T0
M30
