%TF.GenerationSoftware,KiCad,Pcbnew,(6.0.8)*%
%TF.CreationDate,2023-09-05T09:20:41+09:00*%
%TF.ProjectId,AltairMD_V2,416c7461-6972-44d4-945f-56322e6b6963,rev?*%
%TF.SameCoordinates,Original*%
%TF.FileFunction,Soldermask,Bot*%
%TF.FilePolarity,Negative*%
%FSLAX46Y46*%
G04 Gerber Fmt 4.6, Leading zero omitted, Abs format (unit mm)*
G04 Created by KiCad (PCBNEW (6.0.8)) date 2023-09-05 09:20:41*
%MOMM*%
%LPD*%
G01*
G04 APERTURE LIST*
%ADD10O,1.600000X1.600000*%
%ADD11R,1.600000X1.600000*%
%ADD12C,1.600000*%
%ADD13R,2.600000X2.600000*%
%ADD14C,2.600000*%
%ADD15C,1.800000*%
%ADD16R,1.800000X1.800000*%
%ADD17C,1.447800*%
%ADD18R,2.000000X2.000000*%
%ADD19C,2.000000*%
%ADD20C,3.200000*%
%ADD21R,1.905000X2.000000*%
%ADD22O,1.905000X2.000000*%
%ADD23O,1.700000X1.700000*%
%ADD24R,1.700000X1.700000*%
G04 APERTURE END LIST*
D10*
%TO.C,U5*%
X139710000Y-93228000D03*
X139710000Y-95768000D03*
X139710000Y-98308000D03*
X139710000Y-100848000D03*
X132090000Y-100848000D03*
X132090000Y-98308000D03*
X132090000Y-95768000D03*
D11*
X132090000Y-93228000D03*
%TD*%
D12*
%TO.C,C6*%
X144526000Y-95278900D03*
D11*
X144526000Y-93278900D03*
%TD*%
D10*
%TO.C,R12*%
X92456000Y-105664000D03*
D12*
X92456000Y-95504000D03*
%TD*%
D13*
%TO.C,J5*%
X170226000Y-71125000D03*
D14*
X170226000Y-66045000D03*
X170226000Y-60965000D03*
%TD*%
D15*
%TO.C,D10*%
X84328000Y-81026000D03*
D16*
X86868000Y-81026000D03*
%TD*%
D11*
%TO.C,D1*%
X122428000Y-54102000D03*
D10*
X112268000Y-54102000D03*
%TD*%
D17*
%TO.C,MOSFET1*%
X98208000Y-79121000D03*
X98208000Y-76581000D03*
X98208000Y-74041000D03*
%TD*%
D12*
%TO.C,R4*%
X141986000Y-132334000D03*
D10*
X152146000Y-132334000D03*
%TD*%
D17*
%TO.C,MOSFET3*%
X98208000Y-91567000D03*
X98208000Y-89027000D03*
X98208000Y-86487000D03*
%TD*%
D11*
%TO.C,U4*%
X132090000Y-81026000D03*
D10*
X132090000Y-83566000D03*
X132090000Y-86106000D03*
X132090000Y-88646000D03*
X139710000Y-88646000D03*
X139710000Y-86106000D03*
X139710000Y-83566000D03*
X139710000Y-81026000D03*
%TD*%
D18*
%TO.C,C2*%
X105664000Y-61214000D03*
D19*
X105664000Y-66214000D03*
%TD*%
D12*
%TO.C,R9*%
X115062000Y-90170000D03*
D10*
X104902000Y-90170000D03*
%TD*%
%TO.C,U6*%
X170698000Y-118359000D03*
X170698000Y-120899000D03*
X170698000Y-123439000D03*
X170698000Y-125979000D03*
X170698000Y-128519000D03*
X170698000Y-131059000D03*
X170698000Y-133599000D03*
X163078000Y-133599000D03*
X163078000Y-131059000D03*
X163078000Y-128519000D03*
X163078000Y-125979000D03*
X163078000Y-123439000D03*
X163078000Y-120899000D03*
D11*
X163078000Y-118359000D03*
%TD*%
D12*
%TO.C,R17*%
X154940000Y-78740000D03*
D10*
X154940000Y-68580000D03*
%TD*%
%TO.C,D9*%
X115062000Y-117856000D03*
D11*
X104902000Y-117856000D03*
%TD*%
D20*
%TO.C,H4*%
X172466000Y-147066000D03*
%TD*%
D12*
%TO.C,R1*%
X127508000Y-130556000D03*
D10*
X127508000Y-140716000D03*
%TD*%
%TO.C,R11*%
X104902000Y-104648000D03*
D12*
X115062000Y-104648000D03*
%TD*%
D10*
%TO.C,R14*%
X104902000Y-113030000D03*
D12*
X115062000Y-113030000D03*
%TD*%
D20*
%TO.C,H1*%
X79756000Y-54356000D03*
%TD*%
D12*
%TO.C,R7*%
X115062000Y-78994000D03*
D10*
X104902000Y-78994000D03*
%TD*%
D11*
%TO.C,D2*%
X144526000Y-77724000D03*
D10*
X144526000Y-67564000D03*
%TD*%
D17*
%TO.C,MOSFET2*%
X98208000Y-99060000D03*
X98208000Y-101600000D03*
X98208000Y-104140000D03*
%TD*%
D13*
%TO.C,J3*%
X170180000Y-86614000D03*
D14*
X170180000Y-81534000D03*
X170180000Y-76454000D03*
%TD*%
D12*
%TO.C,R16*%
X154940000Y-63500000D03*
D10*
X154940000Y-53340000D03*
%TD*%
D12*
%TO.C,R2*%
X127508000Y-126238000D03*
D10*
X127508000Y-116078000D03*
%TD*%
D11*
%TO.C,D6*%
X115062000Y-73660000D03*
D10*
X104902000Y-73660000D03*
%TD*%
D16*
%TO.C,D5*%
X155702000Y-119126000D03*
D15*
X155702000Y-116586000D03*
%TD*%
D12*
%TO.C,R10*%
X115316000Y-82550000D03*
D10*
X105156000Y-82550000D03*
%TD*%
D21*
%TO.C,U3*%
X114554000Y-61905000D03*
D22*
X117094000Y-61905000D03*
X119634000Y-61905000D03*
%TD*%
D11*
%TO.C,D7*%
X117856000Y-92456000D03*
D10*
X117856000Y-82296000D03*
%TD*%
D12*
%TO.C,R13*%
X115062000Y-107696000D03*
D10*
X104902000Y-107696000D03*
%TD*%
D20*
%TO.C,H3*%
X79756000Y-147066000D03*
%TD*%
D10*
%TO.C,D8*%
X117856000Y-95504000D03*
D11*
X117856000Y-105664000D03*
%TD*%
D16*
%TO.C,D4*%
X155448000Y-132842000D03*
D15*
X155448000Y-135382000D03*
%TD*%
D11*
%TO.C,C5*%
X144526000Y-81026000D03*
D12*
X144526000Y-83026000D03*
%TD*%
D14*
%TO.C,J1*%
X81996000Y-133853000D03*
D13*
X81996000Y-128773000D03*
%TD*%
D11*
%TO.C,D3*%
X148336000Y-77724000D03*
D10*
X148336000Y-67564000D03*
%TD*%
D18*
%TO.C,C3*%
X128016000Y-61214000D03*
D19*
X128016000Y-66214000D03*
%TD*%
D20*
%TO.C,H2*%
X172466000Y-54356000D03*
%TD*%
D11*
%TO.C,C4*%
X138684000Y-60706000D03*
D12*
X138684000Y-65706000D03*
%TD*%
%TO.C,R5*%
X141986000Y-116332000D03*
D10*
X152146000Y-116332000D03*
%TD*%
D12*
%TO.C,R6*%
X141986000Y-119888000D03*
D10*
X152146000Y-119888000D03*
%TD*%
D11*
%TO.C,U2*%
X132080000Y-116840000D03*
D10*
X132080000Y-119380000D03*
X132080000Y-121920000D03*
X132080000Y-124460000D03*
X139700000Y-124460000D03*
X139700000Y-121920000D03*
X139700000Y-119380000D03*
X139700000Y-116840000D03*
%TD*%
D11*
%TO.C,C1*%
X93980000Y-60706000D03*
D12*
X93980000Y-65706000D03*
%TD*%
D11*
%TO.C,U1*%
X132090000Y-132852000D03*
D10*
X132090000Y-135392000D03*
X132090000Y-137932000D03*
X132090000Y-140472000D03*
X139710000Y-140472000D03*
X139710000Y-137932000D03*
X139710000Y-135392000D03*
X139710000Y-132852000D03*
%TD*%
D12*
%TO.C,R8*%
X92710000Y-71120000D03*
D10*
X92710000Y-81280000D03*
%TD*%
%TO.C,R15*%
X89662000Y-81280000D03*
D12*
X89662000Y-91440000D03*
%TD*%
D17*
%TO.C,MOSFET4*%
X98208000Y-111506000D03*
X98208000Y-114046000D03*
X98208000Y-116586000D03*
%TD*%
D12*
%TO.C,R3*%
X141986000Y-135382000D03*
D10*
X152146000Y-135382000D03*
%TD*%
D23*
%TO.C,J4*%
X90683000Y-140400000D03*
X90683000Y-137860000D03*
X93223000Y-140400000D03*
X93223000Y-137860000D03*
X95763000Y-140400000D03*
X95763000Y-137860000D03*
X98303000Y-140400000D03*
X98303000Y-137860000D03*
X100843000Y-140400000D03*
X100843000Y-137860000D03*
X103383000Y-140400000D03*
X103383000Y-137860000D03*
X105923000Y-140400000D03*
X105923000Y-137860000D03*
X108463000Y-140400000D03*
X108463000Y-137860000D03*
X111003000Y-140400000D03*
X111003000Y-137860000D03*
X113543000Y-140400000D03*
X113543000Y-137860000D03*
X116083000Y-140400000D03*
X116083000Y-137860000D03*
X118623000Y-140400000D03*
D24*
X118623000Y-137860000D03*
%TD*%
D14*
%TO.C,J2*%
X81534000Y-91186000D03*
D13*
X81534000Y-86106000D03*
%TD*%
M02*
