%TF.GenerationSoftware,KiCad,Pcbnew,(6.0.8)*%
%TF.CreationDate,2023-09-05T09:21:04+09:00*%
%TF.ProjectId,AltairMD_V2,416c7461-6972-44d4-945f-56322e6b6963,rev?*%
%TF.SameCoordinates,Original*%
%TF.FileFunction,Drillmap*%
%TF.FilePolarity,Positive*%
%FSLAX45Y45*%
G04 Gerber Fmt 4.5, Leading zero omitted, Abs format (unit mm)*
G04 Created by KiCad (PCBNEW (6.0.8)) date 2023-09-05 09:21:04*
%MOMM*%
%LPD*%
G01*
G04 APERTURE LIST*
%ADD10C,0.100000*%
%ADD11C,0.200000*%
%ADD12C,0.040000*%
%ADD13C,0.080000*%
%ADD14C,0.090000*%
%ADD15C,0.093980*%
%ADD16C,0.110000*%
%ADD17C,0.130000*%
%ADD18C,0.320000*%
G04 APERTURE END LIST*
D10*
X17602200Y-14706600D02*
X17602200Y-5435600D01*
X7975600Y-15062200D02*
X17246600Y-15062200D01*
X7620000Y-5435600D02*
X7620000Y-14706600D01*
X17246600Y-5080000D02*
X7975600Y-5080000D01*
X7975600Y-5080000D02*
G75*
G03*
X7620000Y-5435600I0J-355600D01*
G01*
X7620000Y-14706600D02*
G75*
G03*
X7975600Y-15062200I355600J0D01*
G01*
X17602200Y-5435600D02*
G75*
G03*
X17246600Y-5080000I-355600J0D01*
G01*
X17246600Y-15062200D02*
G75*
G03*
X17602200Y-14706600I0J355600D01*
G01*
D11*
D12*
X12121200Y-9809800D02*
X12161200Y-9849800D01*
X12161200Y-9809800D02*
X12121200Y-9849800D01*
X12596010Y-10962550D02*
X12636010Y-11002550D01*
X12636010Y-10962550D02*
X12596010Y-11002550D01*
X12680000Y-9809800D02*
X12720000Y-9849800D01*
X12720000Y-9809800D02*
X12680000Y-9849800D01*
X12850010Y-10243450D02*
X12890010Y-10283450D01*
X12890010Y-10243450D02*
X12850010Y-10283450D01*
D13*
X9006200Y-8128000D02*
G75*
G03*
X9006200Y-8128000I-40000J0D01*
G01*
X9006200Y-9144000D02*
G75*
G03*
X9006200Y-9144000I-40000J0D01*
G01*
X9285600Y-9550400D02*
G75*
G03*
X9285600Y-9550400I-40000J0D01*
G01*
X9285600Y-10566400D02*
G75*
G03*
X9285600Y-10566400I-40000J0D01*
G01*
X9311000Y-7112000D02*
G75*
G03*
X9311000Y-7112000I-40000J0D01*
G01*
X9311000Y-8128000D02*
G75*
G03*
X9311000Y-8128000I-40000J0D01*
G01*
X9438000Y-6070600D02*
G75*
G03*
X9438000Y-6070600I-40000J0D01*
G01*
X9438000Y-6570600D02*
G75*
G03*
X9438000Y-6570600I-40000J0D01*
G01*
X10530200Y-7366000D02*
G75*
G03*
X10530200Y-7366000I-40000J0D01*
G01*
X10530200Y-7899400D02*
G75*
G03*
X10530200Y-7899400I-40000J0D01*
G01*
X10530200Y-9017000D02*
G75*
G03*
X10530200Y-9017000I-40000J0D01*
G01*
X10530200Y-10464800D02*
G75*
G03*
X10530200Y-10464800I-40000J0D01*
G01*
X10530200Y-10769600D02*
G75*
G03*
X10530200Y-10769600I-40000J0D01*
G01*
X10530200Y-11303000D02*
G75*
G03*
X10530200Y-11303000I-40000J0D01*
G01*
X10530200Y-11785600D02*
G75*
G03*
X10530200Y-11785600I-40000J0D01*
G01*
X10555600Y-8255000D02*
G75*
G03*
X10555600Y-8255000I-40000J0D01*
G01*
X11266800Y-5410200D02*
G75*
G03*
X11266800Y-5410200I-40000J0D01*
G01*
X11546200Y-7366000D02*
G75*
G03*
X11546200Y-7366000I-40000J0D01*
G01*
X11546200Y-7899400D02*
G75*
G03*
X11546200Y-7899400I-40000J0D01*
G01*
X11546200Y-9017000D02*
G75*
G03*
X11546200Y-9017000I-40000J0D01*
G01*
X11546200Y-10464800D02*
G75*
G03*
X11546200Y-10464800I-40000J0D01*
G01*
X11546200Y-10769600D02*
G75*
G03*
X11546200Y-10769600I-40000J0D01*
G01*
X11546200Y-11303000D02*
G75*
G03*
X11546200Y-11303000I-40000J0D01*
G01*
X11546200Y-11785600D02*
G75*
G03*
X11546200Y-11785600I-40000J0D01*
G01*
X11571600Y-8255000D02*
G75*
G03*
X11571600Y-8255000I-40000J0D01*
G01*
X11825600Y-8229600D02*
G75*
G03*
X11825600Y-8229600I-40000J0D01*
G01*
X11825600Y-9245600D02*
G75*
G03*
X11825600Y-9245600I-40000J0D01*
G01*
X11825600Y-9550400D02*
G75*
G03*
X11825600Y-9550400I-40000J0D01*
G01*
X11825600Y-10566400D02*
G75*
G03*
X11825600Y-10566400I-40000J0D01*
G01*
X12282800Y-5410200D02*
G75*
G03*
X12282800Y-5410200I-40000J0D01*
G01*
X12790800Y-11607800D02*
G75*
G03*
X12790800Y-11607800I-40000J0D01*
G01*
X12790800Y-12623800D02*
G75*
G03*
X12790800Y-12623800I-40000J0D01*
G01*
X12790800Y-13055600D02*
G75*
G03*
X12790800Y-13055600I-40000J0D01*
G01*
X12790800Y-14071600D02*
G75*
G03*
X12790800Y-14071600I-40000J0D01*
G01*
X13248000Y-11684000D02*
G75*
G03*
X13248000Y-11684000I-40000J0D01*
G01*
X13248000Y-11938000D02*
G75*
G03*
X13248000Y-11938000I-40000J0D01*
G01*
X13248000Y-12192000D02*
G75*
G03*
X13248000Y-12192000I-40000J0D01*
G01*
X13248000Y-12446000D02*
G75*
G03*
X13248000Y-12446000I-40000J0D01*
G01*
X13249000Y-8102600D02*
G75*
G03*
X13249000Y-8102600I-40000J0D01*
G01*
X13249000Y-8356600D02*
G75*
G03*
X13249000Y-8356600I-40000J0D01*
G01*
X13249000Y-8610600D02*
G75*
G03*
X13249000Y-8610600I-40000J0D01*
G01*
X13249000Y-8864600D02*
G75*
G03*
X13249000Y-8864600I-40000J0D01*
G01*
X13249000Y-9322800D02*
G75*
G03*
X13249000Y-9322800I-40000J0D01*
G01*
X13249000Y-9576800D02*
G75*
G03*
X13249000Y-9576800I-40000J0D01*
G01*
X13249000Y-9830800D02*
G75*
G03*
X13249000Y-9830800I-40000J0D01*
G01*
X13249000Y-10084800D02*
G75*
G03*
X13249000Y-10084800I-40000J0D01*
G01*
X13249000Y-13285200D02*
G75*
G03*
X13249000Y-13285200I-40000J0D01*
G01*
X13249000Y-13539200D02*
G75*
G03*
X13249000Y-13539200I-40000J0D01*
G01*
X13249000Y-13793200D02*
G75*
G03*
X13249000Y-13793200I-40000J0D01*
G01*
X13249000Y-14047200D02*
G75*
G03*
X13249000Y-14047200I-40000J0D01*
G01*
X13908400Y-6070600D02*
G75*
G03*
X13908400Y-6070600I-40000J0D01*
G01*
X13908400Y-6570600D02*
G75*
G03*
X13908400Y-6570600I-40000J0D01*
G01*
X14010000Y-11684000D02*
G75*
G03*
X14010000Y-11684000I-40000J0D01*
G01*
X14010000Y-11938000D02*
G75*
G03*
X14010000Y-11938000I-40000J0D01*
G01*
X14010000Y-12192000D02*
G75*
G03*
X14010000Y-12192000I-40000J0D01*
G01*
X14010000Y-12446000D02*
G75*
G03*
X14010000Y-12446000I-40000J0D01*
G01*
X14011000Y-8102600D02*
G75*
G03*
X14011000Y-8102600I-40000J0D01*
G01*
X14011000Y-8356600D02*
G75*
G03*
X14011000Y-8356600I-40000J0D01*
G01*
X14011000Y-8610600D02*
G75*
G03*
X14011000Y-8610600I-40000J0D01*
G01*
X14011000Y-8864600D02*
G75*
G03*
X14011000Y-8864600I-40000J0D01*
G01*
X14011000Y-9322800D02*
G75*
G03*
X14011000Y-9322800I-40000J0D01*
G01*
X14011000Y-9576800D02*
G75*
G03*
X14011000Y-9576800I-40000J0D01*
G01*
X14011000Y-9830800D02*
G75*
G03*
X14011000Y-9830800I-40000J0D01*
G01*
X14011000Y-10084800D02*
G75*
G03*
X14011000Y-10084800I-40000J0D01*
G01*
X14011000Y-13285200D02*
G75*
G03*
X14011000Y-13285200I-40000J0D01*
G01*
X14011000Y-13539200D02*
G75*
G03*
X14011000Y-13539200I-40000J0D01*
G01*
X14011000Y-13793200D02*
G75*
G03*
X14011000Y-13793200I-40000J0D01*
G01*
X14011000Y-14047200D02*
G75*
G03*
X14011000Y-14047200I-40000J0D01*
G01*
X14238600Y-11633200D02*
G75*
G03*
X14238600Y-11633200I-40000J0D01*
G01*
X14238600Y-11988800D02*
G75*
G03*
X14238600Y-11988800I-40000J0D01*
G01*
X14238600Y-13233400D02*
G75*
G03*
X14238600Y-13233400I-40000J0D01*
G01*
X14238600Y-13538200D02*
G75*
G03*
X14238600Y-13538200I-40000J0D01*
G01*
X14492600Y-6756400D02*
G75*
G03*
X14492600Y-6756400I-40000J0D01*
G01*
X14492600Y-7772400D02*
G75*
G03*
X14492600Y-7772400I-40000J0D01*
G01*
X14492600Y-8102600D02*
G75*
G03*
X14492600Y-8102600I-40000J0D01*
G01*
X14492600Y-8302600D02*
G75*
G03*
X14492600Y-8302600I-40000J0D01*
G01*
X14492600Y-9327890D02*
G75*
G03*
X14492600Y-9327890I-40000J0D01*
G01*
X14492600Y-9527890D02*
G75*
G03*
X14492600Y-9527890I-40000J0D01*
G01*
X14873600Y-6756400D02*
G75*
G03*
X14873600Y-6756400I-40000J0D01*
G01*
X14873600Y-7772400D02*
G75*
G03*
X14873600Y-7772400I-40000J0D01*
G01*
X15254600Y-11633200D02*
G75*
G03*
X15254600Y-11633200I-40000J0D01*
G01*
X15254600Y-11988800D02*
G75*
G03*
X15254600Y-11988800I-40000J0D01*
G01*
X15254600Y-13233400D02*
G75*
G03*
X15254600Y-13233400I-40000J0D01*
G01*
X15254600Y-13538200D02*
G75*
G03*
X15254600Y-13538200I-40000J0D01*
G01*
X15534000Y-5334000D02*
G75*
G03*
X15534000Y-5334000I-40000J0D01*
G01*
X15534000Y-6350000D02*
G75*
G03*
X15534000Y-6350000I-40000J0D01*
G01*
X15534000Y-6858000D02*
G75*
G03*
X15534000Y-6858000I-40000J0D01*
G01*
X15534000Y-7874000D02*
G75*
G03*
X15534000Y-7874000I-40000J0D01*
G01*
X16347800Y-11835900D02*
G75*
G03*
X16347800Y-11835900I-40000J0D01*
G01*
X16347800Y-12089900D02*
G75*
G03*
X16347800Y-12089900I-40000J0D01*
G01*
X16347800Y-12343900D02*
G75*
G03*
X16347800Y-12343900I-40000J0D01*
G01*
X16347800Y-12597900D02*
G75*
G03*
X16347800Y-12597900I-40000J0D01*
G01*
X16347800Y-12851900D02*
G75*
G03*
X16347800Y-12851900I-40000J0D01*
G01*
X16347800Y-13105900D02*
G75*
G03*
X16347800Y-13105900I-40000J0D01*
G01*
X16347800Y-13359900D02*
G75*
G03*
X16347800Y-13359900I-40000J0D01*
G01*
X17109800Y-11835900D02*
G75*
G03*
X17109800Y-11835900I-40000J0D01*
G01*
X17109800Y-12089900D02*
G75*
G03*
X17109800Y-12089900I-40000J0D01*
G01*
X17109800Y-12343900D02*
G75*
G03*
X17109800Y-12343900I-40000J0D01*
G01*
X17109800Y-12597900D02*
G75*
G03*
X17109800Y-12597900I-40000J0D01*
G01*
X17109800Y-12851900D02*
G75*
G03*
X17109800Y-12851900I-40000J0D01*
G01*
X17109800Y-13105900D02*
G75*
G03*
X17109800Y-13105900I-40000J0D01*
G01*
X17109800Y-13359900D02*
G75*
G03*
X17109800Y-13359900I-40000J0D01*
G01*
D14*
X8432800Y-8057600D02*
X8432800Y-8147600D01*
X8387800Y-8102600D02*
X8477800Y-8102600D01*
X8686800Y-8057600D02*
X8686800Y-8147600D01*
X8641800Y-8102600D02*
X8731800Y-8102600D01*
X15544800Y-13239200D02*
X15544800Y-13329200D01*
X15499800Y-13284200D02*
X15589800Y-13284200D01*
X15544800Y-13493200D02*
X15544800Y-13583200D01*
X15499800Y-13538200D02*
X15589800Y-13538200D01*
X15570200Y-11613600D02*
X15570200Y-11703600D01*
X15525200Y-11658600D02*
X15615200Y-11658600D01*
X15570200Y-11867600D02*
X15570200Y-11957600D01*
X15525200Y-11912600D02*
X15615200Y-11912600D01*
D15*
X9854027Y-7437327D02*
X9854027Y-7370873D01*
X9787573Y-7370873D01*
X9787573Y-7437327D01*
X9854027Y-7437327D01*
X9854027Y-7691327D02*
X9854027Y-7624873D01*
X9787573Y-7624873D01*
X9787573Y-7691327D01*
X9854027Y-7691327D01*
X9854027Y-7945327D02*
X9854027Y-7878873D01*
X9787573Y-7878873D01*
X9787573Y-7945327D01*
X9854027Y-7945327D01*
X9854027Y-8681927D02*
X9854027Y-8615473D01*
X9787573Y-8615473D01*
X9787573Y-8681927D01*
X9854027Y-8681927D01*
X9854027Y-8935927D02*
X9854027Y-8869473D01*
X9787573Y-8869473D01*
X9787573Y-8935927D01*
X9854027Y-8935927D01*
X9854027Y-9189927D02*
X9854027Y-9123473D01*
X9787573Y-9123473D01*
X9787573Y-9189927D01*
X9854027Y-9189927D01*
X9854027Y-9939227D02*
X9854027Y-9872773D01*
X9787573Y-9872773D01*
X9787573Y-9939227D01*
X9854027Y-9939227D01*
X9854027Y-10193227D02*
X9854027Y-10126773D01*
X9787573Y-10126773D01*
X9787573Y-10193227D01*
X9854027Y-10193227D01*
X9854027Y-10447227D02*
X9854027Y-10380773D01*
X9787573Y-10380773D01*
X9787573Y-10447227D01*
X9854027Y-10447227D01*
X9854027Y-11183827D02*
X9854027Y-11117373D01*
X9787573Y-11117373D01*
X9787573Y-11183827D01*
X9854027Y-11183827D01*
X9854027Y-11437827D02*
X9854027Y-11371373D01*
X9787573Y-11371373D01*
X9787573Y-11437827D01*
X9854027Y-11437827D01*
X9854027Y-11691827D02*
X9854027Y-11625373D01*
X9787573Y-11625373D01*
X9787573Y-11691827D01*
X9854027Y-11691827D01*
D10*
X9068300Y-13836000D02*
X9118300Y-13786000D01*
X9068300Y-13736000D01*
X9018300Y-13786000D01*
X9068300Y-13836000D01*
X9068300Y-14090000D02*
X9118300Y-14040000D01*
X9068300Y-13990000D01*
X9018300Y-14040000D01*
X9068300Y-14090000D01*
X9322300Y-13836000D02*
X9372300Y-13786000D01*
X9322300Y-13736000D01*
X9272300Y-13786000D01*
X9322300Y-13836000D01*
X9322300Y-14090000D02*
X9372300Y-14040000D01*
X9322300Y-13990000D01*
X9272300Y-14040000D01*
X9322300Y-14090000D01*
X9576300Y-13836000D02*
X9626300Y-13786000D01*
X9576300Y-13736000D01*
X9526300Y-13786000D01*
X9576300Y-13836000D01*
X9576300Y-14090000D02*
X9626300Y-14040000D01*
X9576300Y-13990000D01*
X9526300Y-14040000D01*
X9576300Y-14090000D01*
X9830300Y-13836000D02*
X9880300Y-13786000D01*
X9830300Y-13736000D01*
X9780300Y-13786000D01*
X9830300Y-13836000D01*
X9830300Y-14090000D02*
X9880300Y-14040000D01*
X9830300Y-13990000D01*
X9780300Y-14040000D01*
X9830300Y-14090000D01*
X10084300Y-13836000D02*
X10134300Y-13786000D01*
X10084300Y-13736000D01*
X10034300Y-13786000D01*
X10084300Y-13836000D01*
X10084300Y-14090000D02*
X10134300Y-14040000D01*
X10084300Y-13990000D01*
X10034300Y-14040000D01*
X10084300Y-14090000D01*
X10338300Y-13836000D02*
X10388300Y-13786000D01*
X10338300Y-13736000D01*
X10288300Y-13786000D01*
X10338300Y-13836000D01*
X10338300Y-14090000D02*
X10388300Y-14040000D01*
X10338300Y-13990000D01*
X10288300Y-14040000D01*
X10338300Y-14090000D01*
X10566400Y-6171400D02*
X10616400Y-6121400D01*
X10566400Y-6071400D01*
X10516400Y-6121400D01*
X10566400Y-6171400D01*
X10566400Y-6671400D02*
X10616400Y-6621400D01*
X10566400Y-6571400D01*
X10516400Y-6621400D01*
X10566400Y-6671400D01*
X10592300Y-13836000D02*
X10642300Y-13786000D01*
X10592300Y-13736000D01*
X10542300Y-13786000D01*
X10592300Y-13836000D01*
X10592300Y-14090000D02*
X10642300Y-14040000D01*
X10592300Y-13990000D01*
X10542300Y-14040000D01*
X10592300Y-14090000D01*
X10846300Y-13836000D02*
X10896300Y-13786000D01*
X10846300Y-13736000D01*
X10796300Y-13786000D01*
X10846300Y-13836000D01*
X10846300Y-14090000D02*
X10896300Y-14040000D01*
X10846300Y-13990000D01*
X10796300Y-14040000D01*
X10846300Y-14090000D01*
X11100300Y-13836000D02*
X11150300Y-13786000D01*
X11100300Y-13736000D01*
X11050300Y-13786000D01*
X11100300Y-13836000D01*
X11100300Y-14090000D02*
X11150300Y-14040000D01*
X11100300Y-13990000D01*
X11050300Y-14040000D01*
X11100300Y-14090000D01*
X11354300Y-13836000D02*
X11404300Y-13786000D01*
X11354300Y-13736000D01*
X11304300Y-13786000D01*
X11354300Y-13836000D01*
X11354300Y-14090000D02*
X11404300Y-14040000D01*
X11354300Y-13990000D01*
X11304300Y-14040000D01*
X11354300Y-14090000D01*
X11608300Y-13836000D02*
X11658300Y-13786000D01*
X11608300Y-13736000D01*
X11558300Y-13786000D01*
X11608300Y-13836000D01*
X11608300Y-14090000D02*
X11658300Y-14040000D01*
X11608300Y-13990000D01*
X11558300Y-14040000D01*
X11608300Y-14090000D01*
X11862300Y-13836000D02*
X11912300Y-13786000D01*
X11862300Y-13736000D01*
X11812300Y-13786000D01*
X11862300Y-13836000D01*
X11862300Y-14090000D02*
X11912300Y-14040000D01*
X11862300Y-13990000D01*
X11812300Y-14040000D01*
X11862300Y-14090000D01*
X12801600Y-6171400D02*
X12851600Y-6121400D01*
X12801600Y-6071400D01*
X12751600Y-6121400D01*
X12801600Y-6171400D01*
X12801600Y-6671400D02*
X12851600Y-6621400D01*
X12801600Y-6571400D01*
X12751600Y-6621400D01*
X12801600Y-6671400D01*
D16*
X11400400Y-6135500D02*
X11510400Y-6245500D01*
X11510400Y-6135500D02*
X11400400Y-6245500D01*
X11510400Y-6190500D02*
G75*
G03*
X11510400Y-6190500I-55000J0D01*
G01*
X11654400Y-6135500D02*
X11764400Y-6245500D01*
X11764400Y-6135500D02*
X11654400Y-6245500D01*
X11764400Y-6190500D02*
G75*
G03*
X11764400Y-6190500I-55000J0D01*
G01*
X11908400Y-6135500D02*
X12018400Y-6245500D01*
X12018400Y-6135500D02*
X11908400Y-6245500D01*
X12018400Y-6190500D02*
G75*
G03*
X12018400Y-6190500I-55000J0D01*
G01*
D17*
X8088400Y-8545600D02*
X8218400Y-8675600D01*
X8218400Y-8545600D02*
X8088400Y-8675600D01*
X8153400Y-8545600D02*
X8153400Y-8675600D01*
X8088400Y-8610600D02*
X8218400Y-8610600D01*
X8088400Y-9053600D02*
X8218400Y-9183600D01*
X8218400Y-9053600D02*
X8088400Y-9183600D01*
X8153400Y-9053600D02*
X8153400Y-9183600D01*
X8088400Y-9118600D02*
X8218400Y-9118600D01*
X8134600Y-12812300D02*
X8264600Y-12942300D01*
X8264600Y-12812300D02*
X8134600Y-12942300D01*
X8199600Y-12812300D02*
X8199600Y-12942300D01*
X8134600Y-12877300D02*
X8264600Y-12877300D01*
X8134600Y-13320300D02*
X8264600Y-13450300D01*
X8264600Y-13320300D02*
X8134600Y-13450300D01*
X8199600Y-13320300D02*
X8199600Y-13450300D01*
X8134600Y-13385300D02*
X8264600Y-13385300D01*
X16953000Y-7580400D02*
X17083000Y-7710400D01*
X17083000Y-7580400D02*
X16953000Y-7710400D01*
X17018000Y-7580400D02*
X17018000Y-7710400D01*
X16953000Y-7645400D02*
X17083000Y-7645400D01*
X16953000Y-8088400D02*
X17083000Y-8218400D01*
X17083000Y-8088400D02*
X16953000Y-8218400D01*
X17018000Y-8088400D02*
X17018000Y-8218400D01*
X16953000Y-8153400D02*
X17083000Y-8153400D01*
X16953000Y-8596400D02*
X17083000Y-8726400D01*
X17083000Y-8596400D02*
X16953000Y-8726400D01*
X17018000Y-8596400D02*
X17018000Y-8726400D01*
X16953000Y-8661400D02*
X17083000Y-8661400D01*
X16957600Y-6031500D02*
X17087600Y-6161500D01*
X17087600Y-6031500D02*
X16957600Y-6161500D01*
X17022600Y-6031500D02*
X17022600Y-6161500D01*
X16957600Y-6096500D02*
X17087600Y-6096500D01*
X16957600Y-6539500D02*
X17087600Y-6669500D01*
X17087600Y-6539500D02*
X16957600Y-6669500D01*
X17022600Y-6539500D02*
X17022600Y-6669500D01*
X16957600Y-6604500D02*
X17087600Y-6604500D01*
X16957600Y-7047500D02*
X17087600Y-7177500D01*
X17087600Y-7047500D02*
X16957600Y-7177500D01*
X17022600Y-7047500D02*
X17022600Y-7177500D01*
X16957600Y-7112500D02*
X17087600Y-7112500D01*
D18*
X7815600Y-5275600D02*
X8135600Y-5595600D01*
X8135600Y-5275600D02*
X7815600Y-5595600D01*
X8088738Y-5548738D02*
X8088738Y-5322462D01*
X7862462Y-5322462D01*
X7862462Y-5548738D01*
X8088738Y-5548738D01*
X7815600Y-14546600D02*
X8135600Y-14866600D01*
X8135600Y-14546600D02*
X7815600Y-14866600D01*
X8088738Y-14819738D02*
X8088738Y-14593462D01*
X7862462Y-14593462D01*
X7862462Y-14819738D01*
X8088738Y-14819738D01*
X17086600Y-5275600D02*
X17406600Y-5595600D01*
X17406600Y-5275600D02*
X17086600Y-5595600D01*
X17359738Y-5548738D02*
X17359738Y-5322462D01*
X17133462Y-5322462D01*
X17133462Y-5548738D01*
X17359738Y-5548738D01*
X17086600Y-14546600D02*
X17406600Y-14866600D01*
X17406600Y-14546600D02*
X17086600Y-14866600D01*
X17359738Y-14819738D02*
X17359738Y-14593462D01*
X17133462Y-14593462D01*
X17133462Y-14819738D01*
X17359738Y-14819738D01*
D11*
X7872619Y-15377676D02*
X7872619Y-15177676D01*
X7920238Y-15177676D01*
X7948809Y-15187200D01*
X7967857Y-15206248D01*
X7977381Y-15225295D01*
X7986905Y-15263390D01*
X7986905Y-15291962D01*
X7977381Y-15330057D01*
X7967857Y-15349105D01*
X7948809Y-15368152D01*
X7920238Y-15377676D01*
X7872619Y-15377676D01*
X8072619Y-15377676D02*
X8072619Y-15244343D01*
X8072619Y-15282438D02*
X8082143Y-15263390D01*
X8091667Y-15253867D01*
X8110714Y-15244343D01*
X8129762Y-15244343D01*
X8196428Y-15377676D02*
X8196428Y-15244343D01*
X8196428Y-15177676D02*
X8186905Y-15187200D01*
X8196428Y-15196724D01*
X8205952Y-15187200D01*
X8196428Y-15177676D01*
X8196428Y-15196724D01*
X8320238Y-15377676D02*
X8301190Y-15368152D01*
X8291667Y-15349105D01*
X8291667Y-15177676D01*
X8425000Y-15377676D02*
X8405952Y-15368152D01*
X8396429Y-15349105D01*
X8396429Y-15177676D01*
X8653571Y-15377676D02*
X8653571Y-15177676D01*
X8720238Y-15320533D01*
X8786905Y-15177676D01*
X8786905Y-15377676D01*
X8967857Y-15377676D02*
X8967857Y-15272914D01*
X8958333Y-15253867D01*
X8939286Y-15244343D01*
X8901190Y-15244343D01*
X8882143Y-15253867D01*
X8967857Y-15368152D02*
X8948810Y-15377676D01*
X8901190Y-15377676D01*
X8882143Y-15368152D01*
X8872619Y-15349105D01*
X8872619Y-15330057D01*
X8882143Y-15311009D01*
X8901190Y-15301486D01*
X8948810Y-15301486D01*
X8967857Y-15291962D01*
X9063095Y-15244343D02*
X9063095Y-15444343D01*
X9063095Y-15253867D02*
X9082143Y-15244343D01*
X9120238Y-15244343D01*
X9139286Y-15253867D01*
X9148810Y-15263390D01*
X9158333Y-15282438D01*
X9158333Y-15339581D01*
X9148810Y-15358628D01*
X9139286Y-15368152D01*
X9120238Y-15377676D01*
X9082143Y-15377676D01*
X9063095Y-15368152D01*
X9244048Y-15358628D02*
X9253571Y-15368152D01*
X9244048Y-15377676D01*
X9234524Y-15368152D01*
X9244048Y-15358628D01*
X9244048Y-15377676D01*
X9244048Y-15253867D02*
X9253571Y-15263390D01*
X9244048Y-15272914D01*
X9234524Y-15263390D01*
X9244048Y-15253867D01*
X9244048Y-15272914D01*
D12*
X7575000Y-15687200D02*
X7615000Y-15727200D01*
X7615000Y-15687200D02*
X7575000Y-15727200D01*
D11*
X7910714Y-15597676D02*
X7929762Y-15597676D01*
X7948809Y-15607200D01*
X7958333Y-15616724D01*
X7967857Y-15635771D01*
X7977381Y-15673867D01*
X7977381Y-15721486D01*
X7967857Y-15759581D01*
X7958333Y-15778628D01*
X7948809Y-15788152D01*
X7929762Y-15797676D01*
X7910714Y-15797676D01*
X7891667Y-15788152D01*
X7882143Y-15778628D01*
X7872619Y-15759581D01*
X7863095Y-15721486D01*
X7863095Y-15673867D01*
X7872619Y-15635771D01*
X7882143Y-15616724D01*
X7891667Y-15607200D01*
X7910714Y-15597676D01*
X8063095Y-15778628D02*
X8072619Y-15788152D01*
X8063095Y-15797676D01*
X8053571Y-15788152D01*
X8063095Y-15778628D01*
X8063095Y-15797676D01*
X8244048Y-15664343D02*
X8244048Y-15797676D01*
X8196428Y-15588152D02*
X8148809Y-15731009D01*
X8272619Y-15731009D01*
X8386905Y-15597676D02*
X8405952Y-15597676D01*
X8425000Y-15607200D01*
X8434524Y-15616724D01*
X8444048Y-15635771D01*
X8453571Y-15673867D01*
X8453571Y-15721486D01*
X8444048Y-15759581D01*
X8434524Y-15778628D01*
X8425000Y-15788152D01*
X8405952Y-15797676D01*
X8386905Y-15797676D01*
X8367857Y-15788152D01*
X8358333Y-15778628D01*
X8348809Y-15759581D01*
X8339286Y-15721486D01*
X8339286Y-15673867D01*
X8348809Y-15635771D01*
X8358333Y-15616724D01*
X8367857Y-15607200D01*
X8386905Y-15597676D01*
X8577381Y-15597676D02*
X8596429Y-15597676D01*
X8615476Y-15607200D01*
X8625000Y-15616724D01*
X8634524Y-15635771D01*
X8644048Y-15673867D01*
X8644048Y-15721486D01*
X8634524Y-15759581D01*
X8625000Y-15778628D01*
X8615476Y-15788152D01*
X8596429Y-15797676D01*
X8577381Y-15797676D01*
X8558333Y-15788152D01*
X8548810Y-15778628D01*
X8539286Y-15759581D01*
X8529762Y-15721486D01*
X8529762Y-15673867D01*
X8539286Y-15635771D01*
X8548810Y-15616724D01*
X8558333Y-15607200D01*
X8577381Y-15597676D01*
X8729762Y-15797676D02*
X8729762Y-15664343D01*
X8729762Y-15683390D02*
X8739286Y-15673867D01*
X8758333Y-15664343D01*
X8786905Y-15664343D01*
X8805952Y-15673867D01*
X8815476Y-15692914D01*
X8815476Y-15797676D01*
X8815476Y-15692914D02*
X8825000Y-15673867D01*
X8844048Y-15664343D01*
X8872619Y-15664343D01*
X8891667Y-15673867D01*
X8901190Y-15692914D01*
X8901190Y-15797676D01*
X8996429Y-15797676D02*
X8996429Y-15664343D01*
X8996429Y-15683390D02*
X9005952Y-15673867D01*
X9025000Y-15664343D01*
X9053571Y-15664343D01*
X9072619Y-15673867D01*
X9082143Y-15692914D01*
X9082143Y-15797676D01*
X9082143Y-15692914D02*
X9091667Y-15673867D01*
X9110714Y-15664343D01*
X9139286Y-15664343D01*
X9158333Y-15673867D01*
X9167857Y-15692914D01*
X9167857Y-15797676D01*
X9558333Y-15588152D02*
X9386905Y-15845295D01*
X9815476Y-15597676D02*
X9834524Y-15597676D01*
X9853571Y-15607200D01*
X9863095Y-15616724D01*
X9872619Y-15635771D01*
X9882143Y-15673867D01*
X9882143Y-15721486D01*
X9872619Y-15759581D01*
X9863095Y-15778628D01*
X9853571Y-15788152D01*
X9834524Y-15797676D01*
X9815476Y-15797676D01*
X9796429Y-15788152D01*
X9786905Y-15778628D01*
X9777381Y-15759581D01*
X9767857Y-15721486D01*
X9767857Y-15673867D01*
X9777381Y-15635771D01*
X9786905Y-15616724D01*
X9796429Y-15607200D01*
X9815476Y-15597676D01*
X9967857Y-15778628D02*
X9977381Y-15788152D01*
X9967857Y-15797676D01*
X9958333Y-15788152D01*
X9967857Y-15778628D01*
X9967857Y-15797676D01*
X10101190Y-15597676D02*
X10120238Y-15597676D01*
X10139286Y-15607200D01*
X10148810Y-15616724D01*
X10158333Y-15635771D01*
X10167857Y-15673867D01*
X10167857Y-15721486D01*
X10158333Y-15759581D01*
X10148810Y-15778628D01*
X10139286Y-15788152D01*
X10120238Y-15797676D01*
X10101190Y-15797676D01*
X10082143Y-15788152D01*
X10072619Y-15778628D01*
X10063095Y-15759581D01*
X10053571Y-15721486D01*
X10053571Y-15673867D01*
X10063095Y-15635771D01*
X10072619Y-15616724D01*
X10082143Y-15607200D01*
X10101190Y-15597676D01*
X10358333Y-15797676D02*
X10244048Y-15797676D01*
X10301190Y-15797676D02*
X10301190Y-15597676D01*
X10282143Y-15626248D01*
X10263095Y-15645295D01*
X10244048Y-15654819D01*
X10539286Y-15597676D02*
X10444048Y-15597676D01*
X10434524Y-15692914D01*
X10444048Y-15683390D01*
X10463095Y-15673867D01*
X10510714Y-15673867D01*
X10529762Y-15683390D01*
X10539286Y-15692914D01*
X10548810Y-15711962D01*
X10548810Y-15759581D01*
X10539286Y-15778628D01*
X10529762Y-15788152D01*
X10510714Y-15797676D01*
X10463095Y-15797676D01*
X10444048Y-15788152D01*
X10434524Y-15778628D01*
X10615476Y-15597676D02*
X10748810Y-15597676D01*
X10663095Y-15797676D01*
X10815476Y-15597676D02*
X10815476Y-15635771D01*
X10891667Y-15597676D02*
X10891667Y-15635771D01*
X11186905Y-15873867D02*
X11177381Y-15864343D01*
X11158333Y-15835771D01*
X11148810Y-15816724D01*
X11139286Y-15788152D01*
X11129762Y-15740533D01*
X11129762Y-15702438D01*
X11139286Y-15654819D01*
X11148810Y-15626248D01*
X11158333Y-15607200D01*
X11177381Y-15578628D01*
X11186905Y-15569105D01*
X11348809Y-15664343D02*
X11348809Y-15797676D01*
X11301190Y-15588152D02*
X11253571Y-15731009D01*
X11377381Y-15731009D01*
X11605952Y-15797676D02*
X11605952Y-15597676D01*
X11691667Y-15797676D02*
X11691667Y-15692914D01*
X11682143Y-15673867D01*
X11663095Y-15664343D01*
X11634524Y-15664343D01*
X11615476Y-15673867D01*
X11605952Y-15683390D01*
X11815476Y-15797676D02*
X11796428Y-15788152D01*
X11786905Y-15778628D01*
X11777381Y-15759581D01*
X11777381Y-15702438D01*
X11786905Y-15683390D01*
X11796428Y-15673867D01*
X11815476Y-15664343D01*
X11844048Y-15664343D01*
X11863095Y-15673867D01*
X11872619Y-15683390D01*
X11882143Y-15702438D01*
X11882143Y-15759581D01*
X11872619Y-15778628D01*
X11863095Y-15788152D01*
X11844048Y-15797676D01*
X11815476Y-15797676D01*
X11996428Y-15797676D02*
X11977381Y-15788152D01*
X11967857Y-15769105D01*
X11967857Y-15597676D01*
X12148809Y-15788152D02*
X12129762Y-15797676D01*
X12091667Y-15797676D01*
X12072619Y-15788152D01*
X12063095Y-15769105D01*
X12063095Y-15692914D01*
X12072619Y-15673867D01*
X12091667Y-15664343D01*
X12129762Y-15664343D01*
X12148809Y-15673867D01*
X12158333Y-15692914D01*
X12158333Y-15711962D01*
X12063095Y-15731009D01*
X12234524Y-15788152D02*
X12253571Y-15797676D01*
X12291667Y-15797676D01*
X12310714Y-15788152D01*
X12320238Y-15769105D01*
X12320238Y-15759581D01*
X12310714Y-15740533D01*
X12291667Y-15731009D01*
X12263095Y-15731009D01*
X12244048Y-15721486D01*
X12234524Y-15702438D01*
X12234524Y-15692914D01*
X12244048Y-15673867D01*
X12263095Y-15664343D01*
X12291667Y-15664343D01*
X12310714Y-15673867D01*
X12386905Y-15873867D02*
X12396428Y-15864343D01*
X12415476Y-15835771D01*
X12425000Y-15816724D01*
X12434524Y-15788152D01*
X12444048Y-15740533D01*
X12444048Y-15702438D01*
X12434524Y-15654819D01*
X12425000Y-15626248D01*
X12415476Y-15607200D01*
X12396428Y-15578628D01*
X12386905Y-15569105D01*
D13*
X7615000Y-15971200D02*
G75*
G03*
X7615000Y-15971200I-40000J0D01*
G01*
D11*
X7910714Y-15861676D02*
X7929762Y-15861676D01*
X7948809Y-15871200D01*
X7958333Y-15880724D01*
X7967857Y-15899771D01*
X7977381Y-15937867D01*
X7977381Y-15985486D01*
X7967857Y-16023581D01*
X7958333Y-16042628D01*
X7948809Y-16052152D01*
X7929762Y-16061676D01*
X7910714Y-16061676D01*
X7891667Y-16052152D01*
X7882143Y-16042628D01*
X7872619Y-16023581D01*
X7863095Y-15985486D01*
X7863095Y-15937867D01*
X7872619Y-15899771D01*
X7882143Y-15880724D01*
X7891667Y-15871200D01*
X7910714Y-15861676D01*
X8063095Y-16042628D02*
X8072619Y-16052152D01*
X8063095Y-16061676D01*
X8053571Y-16052152D01*
X8063095Y-16042628D01*
X8063095Y-16061676D01*
X8186905Y-15947390D02*
X8167857Y-15937867D01*
X8158333Y-15928343D01*
X8148809Y-15909295D01*
X8148809Y-15899771D01*
X8158333Y-15880724D01*
X8167857Y-15871200D01*
X8186905Y-15861676D01*
X8225000Y-15861676D01*
X8244048Y-15871200D01*
X8253571Y-15880724D01*
X8263095Y-15899771D01*
X8263095Y-15909295D01*
X8253571Y-15928343D01*
X8244048Y-15937867D01*
X8225000Y-15947390D01*
X8186905Y-15947390D01*
X8167857Y-15956914D01*
X8158333Y-15966438D01*
X8148809Y-15985486D01*
X8148809Y-16023581D01*
X8158333Y-16042628D01*
X8167857Y-16052152D01*
X8186905Y-16061676D01*
X8225000Y-16061676D01*
X8244048Y-16052152D01*
X8253571Y-16042628D01*
X8263095Y-16023581D01*
X8263095Y-15985486D01*
X8253571Y-15966438D01*
X8244048Y-15956914D01*
X8225000Y-15947390D01*
X8386905Y-15861676D02*
X8405952Y-15861676D01*
X8425000Y-15871200D01*
X8434524Y-15880724D01*
X8444048Y-15899771D01*
X8453571Y-15937867D01*
X8453571Y-15985486D01*
X8444048Y-16023581D01*
X8434524Y-16042628D01*
X8425000Y-16052152D01*
X8405952Y-16061676D01*
X8386905Y-16061676D01*
X8367857Y-16052152D01*
X8358333Y-16042628D01*
X8348809Y-16023581D01*
X8339286Y-15985486D01*
X8339286Y-15937867D01*
X8348809Y-15899771D01*
X8358333Y-15880724D01*
X8367857Y-15871200D01*
X8386905Y-15861676D01*
X8577381Y-15861676D02*
X8596429Y-15861676D01*
X8615476Y-15871200D01*
X8625000Y-15880724D01*
X8634524Y-15899771D01*
X8644048Y-15937867D01*
X8644048Y-15985486D01*
X8634524Y-16023581D01*
X8625000Y-16042628D01*
X8615476Y-16052152D01*
X8596429Y-16061676D01*
X8577381Y-16061676D01*
X8558333Y-16052152D01*
X8548810Y-16042628D01*
X8539286Y-16023581D01*
X8529762Y-15985486D01*
X8529762Y-15937867D01*
X8539286Y-15899771D01*
X8548810Y-15880724D01*
X8558333Y-15871200D01*
X8577381Y-15861676D01*
X8729762Y-16061676D02*
X8729762Y-15928343D01*
X8729762Y-15947390D02*
X8739286Y-15937867D01*
X8758333Y-15928343D01*
X8786905Y-15928343D01*
X8805952Y-15937867D01*
X8815476Y-15956914D01*
X8815476Y-16061676D01*
X8815476Y-15956914D02*
X8825000Y-15937867D01*
X8844048Y-15928343D01*
X8872619Y-15928343D01*
X8891667Y-15937867D01*
X8901190Y-15956914D01*
X8901190Y-16061676D01*
X8996429Y-16061676D02*
X8996429Y-15928343D01*
X8996429Y-15947390D02*
X9005952Y-15937867D01*
X9025000Y-15928343D01*
X9053571Y-15928343D01*
X9072619Y-15937867D01*
X9082143Y-15956914D01*
X9082143Y-16061676D01*
X9082143Y-15956914D02*
X9091667Y-15937867D01*
X9110714Y-15928343D01*
X9139286Y-15928343D01*
X9158333Y-15937867D01*
X9167857Y-15956914D01*
X9167857Y-16061676D01*
X9558333Y-15852152D02*
X9386905Y-16109295D01*
X9815476Y-15861676D02*
X9834524Y-15861676D01*
X9853571Y-15871200D01*
X9863095Y-15880724D01*
X9872619Y-15899771D01*
X9882143Y-15937867D01*
X9882143Y-15985486D01*
X9872619Y-16023581D01*
X9863095Y-16042628D01*
X9853571Y-16052152D01*
X9834524Y-16061676D01*
X9815476Y-16061676D01*
X9796429Y-16052152D01*
X9786905Y-16042628D01*
X9777381Y-16023581D01*
X9767857Y-15985486D01*
X9767857Y-15937867D01*
X9777381Y-15899771D01*
X9786905Y-15880724D01*
X9796429Y-15871200D01*
X9815476Y-15861676D01*
X9967857Y-16042628D02*
X9977381Y-16052152D01*
X9967857Y-16061676D01*
X9958333Y-16052152D01*
X9967857Y-16042628D01*
X9967857Y-16061676D01*
X10101190Y-15861676D02*
X10120238Y-15861676D01*
X10139286Y-15871200D01*
X10148810Y-15880724D01*
X10158333Y-15899771D01*
X10167857Y-15937867D01*
X10167857Y-15985486D01*
X10158333Y-16023581D01*
X10148810Y-16042628D01*
X10139286Y-16052152D01*
X10120238Y-16061676D01*
X10101190Y-16061676D01*
X10082143Y-16052152D01*
X10072619Y-16042628D01*
X10063095Y-16023581D01*
X10053571Y-15985486D01*
X10053571Y-15937867D01*
X10063095Y-15899771D01*
X10072619Y-15880724D01*
X10082143Y-15871200D01*
X10101190Y-15861676D01*
X10234524Y-15861676D02*
X10358333Y-15861676D01*
X10291667Y-15937867D01*
X10320238Y-15937867D01*
X10339286Y-15947390D01*
X10348810Y-15956914D01*
X10358333Y-15975962D01*
X10358333Y-16023581D01*
X10348810Y-16042628D01*
X10339286Y-16052152D01*
X10320238Y-16061676D01*
X10263095Y-16061676D01*
X10244048Y-16052152D01*
X10234524Y-16042628D01*
X10548810Y-16061676D02*
X10434524Y-16061676D01*
X10491667Y-16061676D02*
X10491667Y-15861676D01*
X10472619Y-15890248D01*
X10453571Y-15909295D01*
X10434524Y-15918819D01*
X10729762Y-15861676D02*
X10634524Y-15861676D01*
X10625000Y-15956914D01*
X10634524Y-15947390D01*
X10653571Y-15937867D01*
X10701190Y-15937867D01*
X10720238Y-15947390D01*
X10729762Y-15956914D01*
X10739286Y-15975962D01*
X10739286Y-16023581D01*
X10729762Y-16042628D01*
X10720238Y-16052152D01*
X10701190Y-16061676D01*
X10653571Y-16061676D01*
X10634524Y-16052152D01*
X10625000Y-16042628D01*
X10815476Y-15861676D02*
X10815476Y-15899771D01*
X10891667Y-15861676D02*
X10891667Y-15899771D01*
X11186905Y-16137867D02*
X11177381Y-16128343D01*
X11158333Y-16099771D01*
X11148810Y-16080724D01*
X11139286Y-16052152D01*
X11129762Y-16004533D01*
X11129762Y-15966438D01*
X11139286Y-15918819D01*
X11148810Y-15890248D01*
X11158333Y-15871200D01*
X11177381Y-15842628D01*
X11186905Y-15833105D01*
X11367857Y-16061676D02*
X11253571Y-16061676D01*
X11310714Y-16061676D02*
X11310714Y-15861676D01*
X11291667Y-15890248D01*
X11272619Y-15909295D01*
X11253571Y-15918819D01*
X11491667Y-15861676D02*
X11510714Y-15861676D01*
X11529762Y-15871200D01*
X11539286Y-15880724D01*
X11548809Y-15899771D01*
X11558333Y-15937867D01*
X11558333Y-15985486D01*
X11548809Y-16023581D01*
X11539286Y-16042628D01*
X11529762Y-16052152D01*
X11510714Y-16061676D01*
X11491667Y-16061676D01*
X11472619Y-16052152D01*
X11463095Y-16042628D01*
X11453571Y-16023581D01*
X11444048Y-15985486D01*
X11444048Y-15937867D01*
X11453571Y-15899771D01*
X11463095Y-15880724D01*
X11472619Y-15871200D01*
X11491667Y-15861676D01*
X11634524Y-15880724D02*
X11644048Y-15871200D01*
X11663095Y-15861676D01*
X11710714Y-15861676D01*
X11729762Y-15871200D01*
X11739286Y-15880724D01*
X11748809Y-15899771D01*
X11748809Y-15918819D01*
X11739286Y-15947390D01*
X11625000Y-16061676D01*
X11748809Y-16061676D01*
X11986905Y-16061676D02*
X11986905Y-15861676D01*
X12072619Y-16061676D02*
X12072619Y-15956914D01*
X12063095Y-15937867D01*
X12044048Y-15928343D01*
X12015476Y-15928343D01*
X11996428Y-15937867D01*
X11986905Y-15947390D01*
X12196428Y-16061676D02*
X12177381Y-16052152D01*
X12167857Y-16042628D01*
X12158333Y-16023581D01*
X12158333Y-15966438D01*
X12167857Y-15947390D01*
X12177381Y-15937867D01*
X12196428Y-15928343D01*
X12225000Y-15928343D01*
X12244048Y-15937867D01*
X12253571Y-15947390D01*
X12263095Y-15966438D01*
X12263095Y-16023581D01*
X12253571Y-16042628D01*
X12244048Y-16052152D01*
X12225000Y-16061676D01*
X12196428Y-16061676D01*
X12377381Y-16061676D02*
X12358333Y-16052152D01*
X12348809Y-16033105D01*
X12348809Y-15861676D01*
X12529762Y-16052152D02*
X12510714Y-16061676D01*
X12472619Y-16061676D01*
X12453571Y-16052152D01*
X12444048Y-16033105D01*
X12444048Y-15956914D01*
X12453571Y-15937867D01*
X12472619Y-15928343D01*
X12510714Y-15928343D01*
X12529762Y-15937867D01*
X12539286Y-15956914D01*
X12539286Y-15975962D01*
X12444048Y-15995009D01*
X12615476Y-16052152D02*
X12634524Y-16061676D01*
X12672619Y-16061676D01*
X12691667Y-16052152D01*
X12701190Y-16033105D01*
X12701190Y-16023581D01*
X12691667Y-16004533D01*
X12672619Y-15995009D01*
X12644048Y-15995009D01*
X12625000Y-15985486D01*
X12615476Y-15966438D01*
X12615476Y-15956914D01*
X12625000Y-15937867D01*
X12644048Y-15928343D01*
X12672619Y-15928343D01*
X12691667Y-15937867D01*
X12767857Y-16137867D02*
X12777381Y-16128343D01*
X12796428Y-16099771D01*
X12805952Y-16080724D01*
X12815476Y-16052152D01*
X12825000Y-16004533D01*
X12825000Y-15966438D01*
X12815476Y-15918819D01*
X12805952Y-15890248D01*
X12796428Y-15871200D01*
X12777381Y-15842628D01*
X12767857Y-15833105D01*
D14*
X7570000Y-16190200D02*
X7570000Y-16280200D01*
X7525000Y-16235200D02*
X7615000Y-16235200D01*
D11*
X7910714Y-16125676D02*
X7929762Y-16125676D01*
X7948809Y-16135200D01*
X7958333Y-16144724D01*
X7967857Y-16163771D01*
X7977381Y-16201867D01*
X7977381Y-16249486D01*
X7967857Y-16287581D01*
X7958333Y-16306628D01*
X7948809Y-16316152D01*
X7929762Y-16325676D01*
X7910714Y-16325676D01*
X7891667Y-16316152D01*
X7882143Y-16306628D01*
X7872619Y-16287581D01*
X7863095Y-16249486D01*
X7863095Y-16201867D01*
X7872619Y-16163771D01*
X7882143Y-16144724D01*
X7891667Y-16135200D01*
X7910714Y-16125676D01*
X8063095Y-16306628D02*
X8072619Y-16316152D01*
X8063095Y-16325676D01*
X8053571Y-16316152D01*
X8063095Y-16306628D01*
X8063095Y-16325676D01*
X8167857Y-16325676D02*
X8205952Y-16325676D01*
X8225000Y-16316152D01*
X8234524Y-16306628D01*
X8253571Y-16278057D01*
X8263095Y-16239962D01*
X8263095Y-16163771D01*
X8253571Y-16144724D01*
X8244048Y-16135200D01*
X8225000Y-16125676D01*
X8186905Y-16125676D01*
X8167857Y-16135200D01*
X8158333Y-16144724D01*
X8148809Y-16163771D01*
X8148809Y-16211390D01*
X8158333Y-16230438D01*
X8167857Y-16239962D01*
X8186905Y-16249486D01*
X8225000Y-16249486D01*
X8244048Y-16239962D01*
X8253571Y-16230438D01*
X8263095Y-16211390D01*
X8386905Y-16125676D02*
X8405952Y-16125676D01*
X8425000Y-16135200D01*
X8434524Y-16144724D01*
X8444048Y-16163771D01*
X8453571Y-16201867D01*
X8453571Y-16249486D01*
X8444048Y-16287581D01*
X8434524Y-16306628D01*
X8425000Y-16316152D01*
X8405952Y-16325676D01*
X8386905Y-16325676D01*
X8367857Y-16316152D01*
X8358333Y-16306628D01*
X8348809Y-16287581D01*
X8339286Y-16249486D01*
X8339286Y-16201867D01*
X8348809Y-16163771D01*
X8358333Y-16144724D01*
X8367857Y-16135200D01*
X8386905Y-16125676D01*
X8577381Y-16125676D02*
X8596429Y-16125676D01*
X8615476Y-16135200D01*
X8625000Y-16144724D01*
X8634524Y-16163771D01*
X8644048Y-16201867D01*
X8644048Y-16249486D01*
X8634524Y-16287581D01*
X8625000Y-16306628D01*
X8615476Y-16316152D01*
X8596429Y-16325676D01*
X8577381Y-16325676D01*
X8558333Y-16316152D01*
X8548810Y-16306628D01*
X8539286Y-16287581D01*
X8529762Y-16249486D01*
X8529762Y-16201867D01*
X8539286Y-16163771D01*
X8548810Y-16144724D01*
X8558333Y-16135200D01*
X8577381Y-16125676D01*
X8729762Y-16325676D02*
X8729762Y-16192343D01*
X8729762Y-16211390D02*
X8739286Y-16201867D01*
X8758333Y-16192343D01*
X8786905Y-16192343D01*
X8805952Y-16201867D01*
X8815476Y-16220914D01*
X8815476Y-16325676D01*
X8815476Y-16220914D02*
X8825000Y-16201867D01*
X8844048Y-16192343D01*
X8872619Y-16192343D01*
X8891667Y-16201867D01*
X8901190Y-16220914D01*
X8901190Y-16325676D01*
X8996429Y-16325676D02*
X8996429Y-16192343D01*
X8996429Y-16211390D02*
X9005952Y-16201867D01*
X9025000Y-16192343D01*
X9053571Y-16192343D01*
X9072619Y-16201867D01*
X9082143Y-16220914D01*
X9082143Y-16325676D01*
X9082143Y-16220914D02*
X9091667Y-16201867D01*
X9110714Y-16192343D01*
X9139286Y-16192343D01*
X9158333Y-16201867D01*
X9167857Y-16220914D01*
X9167857Y-16325676D01*
X9558333Y-16116152D02*
X9386905Y-16373295D01*
X9815476Y-16125676D02*
X9834524Y-16125676D01*
X9853571Y-16135200D01*
X9863095Y-16144724D01*
X9872619Y-16163771D01*
X9882143Y-16201867D01*
X9882143Y-16249486D01*
X9872619Y-16287581D01*
X9863095Y-16306628D01*
X9853571Y-16316152D01*
X9834524Y-16325676D01*
X9815476Y-16325676D01*
X9796429Y-16316152D01*
X9786905Y-16306628D01*
X9777381Y-16287581D01*
X9767857Y-16249486D01*
X9767857Y-16201867D01*
X9777381Y-16163771D01*
X9786905Y-16144724D01*
X9796429Y-16135200D01*
X9815476Y-16125676D01*
X9967857Y-16306628D02*
X9977381Y-16316152D01*
X9967857Y-16325676D01*
X9958333Y-16316152D01*
X9967857Y-16306628D01*
X9967857Y-16325676D01*
X10101190Y-16125676D02*
X10120238Y-16125676D01*
X10139286Y-16135200D01*
X10148810Y-16144724D01*
X10158333Y-16163771D01*
X10167857Y-16201867D01*
X10167857Y-16249486D01*
X10158333Y-16287581D01*
X10148810Y-16306628D01*
X10139286Y-16316152D01*
X10120238Y-16325676D01*
X10101190Y-16325676D01*
X10082143Y-16316152D01*
X10072619Y-16306628D01*
X10063095Y-16287581D01*
X10053571Y-16249486D01*
X10053571Y-16201867D01*
X10063095Y-16163771D01*
X10072619Y-16144724D01*
X10082143Y-16135200D01*
X10101190Y-16125676D01*
X10234524Y-16125676D02*
X10358333Y-16125676D01*
X10291667Y-16201867D01*
X10320238Y-16201867D01*
X10339286Y-16211390D01*
X10348810Y-16220914D01*
X10358333Y-16239962D01*
X10358333Y-16287581D01*
X10348810Y-16306628D01*
X10339286Y-16316152D01*
X10320238Y-16325676D01*
X10263095Y-16325676D01*
X10244048Y-16316152D01*
X10234524Y-16306628D01*
X10539286Y-16125676D02*
X10444048Y-16125676D01*
X10434524Y-16220914D01*
X10444048Y-16211390D01*
X10463095Y-16201867D01*
X10510714Y-16201867D01*
X10529762Y-16211390D01*
X10539286Y-16220914D01*
X10548810Y-16239962D01*
X10548810Y-16287581D01*
X10539286Y-16306628D01*
X10529762Y-16316152D01*
X10510714Y-16325676D01*
X10463095Y-16325676D01*
X10444048Y-16316152D01*
X10434524Y-16306628D01*
X10720238Y-16192343D02*
X10720238Y-16325676D01*
X10672619Y-16116152D02*
X10625000Y-16259009D01*
X10748810Y-16259009D01*
X10815476Y-16125676D02*
X10815476Y-16163771D01*
X10891667Y-16125676D02*
X10891667Y-16163771D01*
X11186905Y-16401867D02*
X11177381Y-16392343D01*
X11158333Y-16363771D01*
X11148810Y-16344724D01*
X11139286Y-16316152D01*
X11129762Y-16268533D01*
X11129762Y-16230438D01*
X11139286Y-16182819D01*
X11148810Y-16154248D01*
X11158333Y-16135200D01*
X11177381Y-16106628D01*
X11186905Y-16097105D01*
X11348809Y-16125676D02*
X11310714Y-16125676D01*
X11291667Y-16135200D01*
X11282143Y-16144724D01*
X11263095Y-16173295D01*
X11253571Y-16211390D01*
X11253571Y-16287581D01*
X11263095Y-16306628D01*
X11272619Y-16316152D01*
X11291667Y-16325676D01*
X11329762Y-16325676D01*
X11348809Y-16316152D01*
X11358333Y-16306628D01*
X11367857Y-16287581D01*
X11367857Y-16239962D01*
X11358333Y-16220914D01*
X11348809Y-16211390D01*
X11329762Y-16201867D01*
X11291667Y-16201867D01*
X11272619Y-16211390D01*
X11263095Y-16220914D01*
X11253571Y-16239962D01*
X11605952Y-16325676D02*
X11605952Y-16125676D01*
X11691667Y-16325676D02*
X11691667Y-16220914D01*
X11682143Y-16201867D01*
X11663095Y-16192343D01*
X11634524Y-16192343D01*
X11615476Y-16201867D01*
X11605952Y-16211390D01*
X11815476Y-16325676D02*
X11796428Y-16316152D01*
X11786905Y-16306628D01*
X11777381Y-16287581D01*
X11777381Y-16230438D01*
X11786905Y-16211390D01*
X11796428Y-16201867D01*
X11815476Y-16192343D01*
X11844048Y-16192343D01*
X11863095Y-16201867D01*
X11872619Y-16211390D01*
X11882143Y-16230438D01*
X11882143Y-16287581D01*
X11872619Y-16306628D01*
X11863095Y-16316152D01*
X11844048Y-16325676D01*
X11815476Y-16325676D01*
X11996428Y-16325676D02*
X11977381Y-16316152D01*
X11967857Y-16297105D01*
X11967857Y-16125676D01*
X12148809Y-16316152D02*
X12129762Y-16325676D01*
X12091667Y-16325676D01*
X12072619Y-16316152D01*
X12063095Y-16297105D01*
X12063095Y-16220914D01*
X12072619Y-16201867D01*
X12091667Y-16192343D01*
X12129762Y-16192343D01*
X12148809Y-16201867D01*
X12158333Y-16220914D01*
X12158333Y-16239962D01*
X12063095Y-16259009D01*
X12234524Y-16316152D02*
X12253571Y-16325676D01*
X12291667Y-16325676D01*
X12310714Y-16316152D01*
X12320238Y-16297105D01*
X12320238Y-16287581D01*
X12310714Y-16268533D01*
X12291667Y-16259009D01*
X12263095Y-16259009D01*
X12244048Y-16249486D01*
X12234524Y-16230438D01*
X12234524Y-16220914D01*
X12244048Y-16201867D01*
X12263095Y-16192343D01*
X12291667Y-16192343D01*
X12310714Y-16201867D01*
X12386905Y-16401867D02*
X12396428Y-16392343D01*
X12415476Y-16363771D01*
X12425000Y-16344724D01*
X12434524Y-16316152D01*
X12444048Y-16268533D01*
X12444048Y-16230438D01*
X12434524Y-16182819D01*
X12425000Y-16154248D01*
X12415476Y-16135200D01*
X12396428Y-16106628D01*
X12386905Y-16097105D01*
D15*
X7601237Y-16532427D02*
X7601237Y-16465973D01*
X7534783Y-16465973D01*
X7534783Y-16532427D01*
X7601237Y-16532427D01*
D11*
X7910714Y-16389676D02*
X7929762Y-16389676D01*
X7948809Y-16399200D01*
X7958333Y-16408724D01*
X7967857Y-16427771D01*
X7977381Y-16465867D01*
X7977381Y-16513486D01*
X7967857Y-16551581D01*
X7958333Y-16570628D01*
X7948809Y-16580152D01*
X7929762Y-16589676D01*
X7910714Y-16589676D01*
X7891667Y-16580152D01*
X7882143Y-16570628D01*
X7872619Y-16551581D01*
X7863095Y-16513486D01*
X7863095Y-16465867D01*
X7872619Y-16427771D01*
X7882143Y-16408724D01*
X7891667Y-16399200D01*
X7910714Y-16389676D01*
X8063095Y-16570628D02*
X8072619Y-16580152D01*
X8063095Y-16589676D01*
X8053571Y-16580152D01*
X8063095Y-16570628D01*
X8063095Y-16589676D01*
X8167857Y-16589676D02*
X8205952Y-16589676D01*
X8225000Y-16580152D01*
X8234524Y-16570628D01*
X8253571Y-16542057D01*
X8263095Y-16503962D01*
X8263095Y-16427771D01*
X8253571Y-16408724D01*
X8244048Y-16399200D01*
X8225000Y-16389676D01*
X8186905Y-16389676D01*
X8167857Y-16399200D01*
X8158333Y-16408724D01*
X8148809Y-16427771D01*
X8148809Y-16475390D01*
X8158333Y-16494438D01*
X8167857Y-16503962D01*
X8186905Y-16513486D01*
X8225000Y-16513486D01*
X8244048Y-16503962D01*
X8253571Y-16494438D01*
X8263095Y-16475390D01*
X8434524Y-16456343D02*
X8434524Y-16589676D01*
X8386905Y-16380152D02*
X8339286Y-16523009D01*
X8463095Y-16523009D01*
X8577381Y-16389676D02*
X8596429Y-16389676D01*
X8615476Y-16399200D01*
X8625000Y-16408724D01*
X8634524Y-16427771D01*
X8644048Y-16465867D01*
X8644048Y-16513486D01*
X8634524Y-16551581D01*
X8625000Y-16570628D01*
X8615476Y-16580152D01*
X8596429Y-16589676D01*
X8577381Y-16589676D01*
X8558333Y-16580152D01*
X8548810Y-16570628D01*
X8539286Y-16551581D01*
X8529762Y-16513486D01*
X8529762Y-16465867D01*
X8539286Y-16427771D01*
X8548810Y-16408724D01*
X8558333Y-16399200D01*
X8577381Y-16389676D01*
X8729762Y-16589676D02*
X8729762Y-16456343D01*
X8729762Y-16475390D02*
X8739286Y-16465867D01*
X8758333Y-16456343D01*
X8786905Y-16456343D01*
X8805952Y-16465867D01*
X8815476Y-16484914D01*
X8815476Y-16589676D01*
X8815476Y-16484914D02*
X8825000Y-16465867D01*
X8844048Y-16456343D01*
X8872619Y-16456343D01*
X8891667Y-16465867D01*
X8901190Y-16484914D01*
X8901190Y-16589676D01*
X8996429Y-16589676D02*
X8996429Y-16456343D01*
X8996429Y-16475390D02*
X9005952Y-16465867D01*
X9025000Y-16456343D01*
X9053571Y-16456343D01*
X9072619Y-16465867D01*
X9082143Y-16484914D01*
X9082143Y-16589676D01*
X9082143Y-16484914D02*
X9091667Y-16465867D01*
X9110714Y-16456343D01*
X9139286Y-16456343D01*
X9158333Y-16465867D01*
X9167857Y-16484914D01*
X9167857Y-16589676D01*
X9558333Y-16380152D02*
X9386905Y-16637295D01*
X9815476Y-16389676D02*
X9834524Y-16389676D01*
X9853571Y-16399200D01*
X9863095Y-16408724D01*
X9872619Y-16427771D01*
X9882143Y-16465867D01*
X9882143Y-16513486D01*
X9872619Y-16551581D01*
X9863095Y-16570628D01*
X9853571Y-16580152D01*
X9834524Y-16589676D01*
X9815476Y-16589676D01*
X9796429Y-16580152D01*
X9786905Y-16570628D01*
X9777381Y-16551581D01*
X9767857Y-16513486D01*
X9767857Y-16465867D01*
X9777381Y-16427771D01*
X9786905Y-16408724D01*
X9796429Y-16399200D01*
X9815476Y-16389676D01*
X9967857Y-16570628D02*
X9977381Y-16580152D01*
X9967857Y-16589676D01*
X9958333Y-16580152D01*
X9967857Y-16570628D01*
X9967857Y-16589676D01*
X10101190Y-16389676D02*
X10120238Y-16389676D01*
X10139286Y-16399200D01*
X10148810Y-16408724D01*
X10158333Y-16427771D01*
X10167857Y-16465867D01*
X10167857Y-16513486D01*
X10158333Y-16551581D01*
X10148810Y-16570628D01*
X10139286Y-16580152D01*
X10120238Y-16589676D01*
X10101190Y-16589676D01*
X10082143Y-16580152D01*
X10072619Y-16570628D01*
X10063095Y-16551581D01*
X10053571Y-16513486D01*
X10053571Y-16465867D01*
X10063095Y-16427771D01*
X10072619Y-16408724D01*
X10082143Y-16399200D01*
X10101190Y-16389676D01*
X10234524Y-16389676D02*
X10358333Y-16389676D01*
X10291667Y-16465867D01*
X10320238Y-16465867D01*
X10339286Y-16475390D01*
X10348810Y-16484914D01*
X10358333Y-16503962D01*
X10358333Y-16551581D01*
X10348810Y-16570628D01*
X10339286Y-16580152D01*
X10320238Y-16589676D01*
X10263095Y-16589676D01*
X10244048Y-16580152D01*
X10234524Y-16570628D01*
X10425000Y-16389676D02*
X10558333Y-16389676D01*
X10472619Y-16589676D01*
X10672619Y-16389676D02*
X10691667Y-16389676D01*
X10710714Y-16399200D01*
X10720238Y-16408724D01*
X10729762Y-16427771D01*
X10739286Y-16465867D01*
X10739286Y-16513486D01*
X10729762Y-16551581D01*
X10720238Y-16570628D01*
X10710714Y-16580152D01*
X10691667Y-16589676D01*
X10672619Y-16589676D01*
X10653571Y-16580152D01*
X10644048Y-16570628D01*
X10634524Y-16551581D01*
X10625000Y-16513486D01*
X10625000Y-16465867D01*
X10634524Y-16427771D01*
X10644048Y-16408724D01*
X10653571Y-16399200D01*
X10672619Y-16389676D01*
X10815476Y-16389676D02*
X10815476Y-16427771D01*
X10891667Y-16389676D02*
X10891667Y-16427771D01*
X11186905Y-16665867D02*
X11177381Y-16656343D01*
X11158333Y-16627771D01*
X11148810Y-16608724D01*
X11139286Y-16580152D01*
X11129762Y-16532533D01*
X11129762Y-16494438D01*
X11139286Y-16446819D01*
X11148810Y-16418248D01*
X11158333Y-16399200D01*
X11177381Y-16370628D01*
X11186905Y-16361105D01*
X11367857Y-16589676D02*
X11253571Y-16589676D01*
X11310714Y-16589676D02*
X11310714Y-16389676D01*
X11291667Y-16418248D01*
X11272619Y-16437295D01*
X11253571Y-16446819D01*
X11444048Y-16408724D02*
X11453571Y-16399200D01*
X11472619Y-16389676D01*
X11520238Y-16389676D01*
X11539286Y-16399200D01*
X11548809Y-16408724D01*
X11558333Y-16427771D01*
X11558333Y-16446819D01*
X11548809Y-16475390D01*
X11434524Y-16589676D01*
X11558333Y-16589676D01*
X11796428Y-16589676D02*
X11796428Y-16389676D01*
X11882143Y-16589676D02*
X11882143Y-16484914D01*
X11872619Y-16465867D01*
X11853571Y-16456343D01*
X11825000Y-16456343D01*
X11805952Y-16465867D01*
X11796428Y-16475390D01*
X12005952Y-16589676D02*
X11986905Y-16580152D01*
X11977381Y-16570628D01*
X11967857Y-16551581D01*
X11967857Y-16494438D01*
X11977381Y-16475390D01*
X11986905Y-16465867D01*
X12005952Y-16456343D01*
X12034524Y-16456343D01*
X12053571Y-16465867D01*
X12063095Y-16475390D01*
X12072619Y-16494438D01*
X12072619Y-16551581D01*
X12063095Y-16570628D01*
X12053571Y-16580152D01*
X12034524Y-16589676D01*
X12005952Y-16589676D01*
X12186905Y-16589676D02*
X12167857Y-16580152D01*
X12158333Y-16561105D01*
X12158333Y-16389676D01*
X12339286Y-16580152D02*
X12320238Y-16589676D01*
X12282143Y-16589676D01*
X12263095Y-16580152D01*
X12253571Y-16561105D01*
X12253571Y-16484914D01*
X12263095Y-16465867D01*
X12282143Y-16456343D01*
X12320238Y-16456343D01*
X12339286Y-16465867D01*
X12348809Y-16484914D01*
X12348809Y-16503962D01*
X12253571Y-16523009D01*
X12425000Y-16580152D02*
X12444048Y-16589676D01*
X12482143Y-16589676D01*
X12501190Y-16580152D01*
X12510714Y-16561105D01*
X12510714Y-16551581D01*
X12501190Y-16532533D01*
X12482143Y-16523009D01*
X12453571Y-16523009D01*
X12434524Y-16513486D01*
X12425000Y-16494438D01*
X12425000Y-16484914D01*
X12434524Y-16465867D01*
X12453571Y-16456343D01*
X12482143Y-16456343D01*
X12501190Y-16465867D01*
X12577381Y-16665867D02*
X12586905Y-16656343D01*
X12605952Y-16627771D01*
X12615476Y-16608724D01*
X12625000Y-16580152D01*
X12634524Y-16532533D01*
X12634524Y-16494438D01*
X12625000Y-16446819D01*
X12615476Y-16418248D01*
X12605952Y-16399200D01*
X12586905Y-16370628D01*
X12577381Y-16361105D01*
D10*
X7565000Y-16813200D02*
X7615000Y-16763200D01*
X7565000Y-16713200D01*
X7515000Y-16763200D01*
X7565000Y-16813200D01*
D11*
X7977381Y-16853676D02*
X7863095Y-16853676D01*
X7920238Y-16853676D02*
X7920238Y-16653676D01*
X7901190Y-16682248D01*
X7882143Y-16701295D01*
X7863095Y-16710819D01*
X8063095Y-16834629D02*
X8072619Y-16844152D01*
X8063095Y-16853676D01*
X8053571Y-16844152D01*
X8063095Y-16834629D01*
X8063095Y-16853676D01*
X8196428Y-16653676D02*
X8215476Y-16653676D01*
X8234524Y-16663200D01*
X8244048Y-16672724D01*
X8253571Y-16691771D01*
X8263095Y-16729867D01*
X8263095Y-16777486D01*
X8253571Y-16815581D01*
X8244048Y-16834629D01*
X8234524Y-16844152D01*
X8215476Y-16853676D01*
X8196428Y-16853676D01*
X8177381Y-16844152D01*
X8167857Y-16834629D01*
X8158333Y-16815581D01*
X8148809Y-16777486D01*
X8148809Y-16729867D01*
X8158333Y-16691771D01*
X8167857Y-16672724D01*
X8177381Y-16663200D01*
X8196428Y-16653676D01*
X8386905Y-16653676D02*
X8405952Y-16653676D01*
X8425000Y-16663200D01*
X8434524Y-16672724D01*
X8444048Y-16691771D01*
X8453571Y-16729867D01*
X8453571Y-16777486D01*
X8444048Y-16815581D01*
X8434524Y-16834629D01*
X8425000Y-16844152D01*
X8405952Y-16853676D01*
X8386905Y-16853676D01*
X8367857Y-16844152D01*
X8358333Y-16834629D01*
X8348809Y-16815581D01*
X8339286Y-16777486D01*
X8339286Y-16729867D01*
X8348809Y-16691771D01*
X8358333Y-16672724D01*
X8367857Y-16663200D01*
X8386905Y-16653676D01*
X8577381Y-16653676D02*
X8596429Y-16653676D01*
X8615476Y-16663200D01*
X8625000Y-16672724D01*
X8634524Y-16691771D01*
X8644048Y-16729867D01*
X8644048Y-16777486D01*
X8634524Y-16815581D01*
X8625000Y-16834629D01*
X8615476Y-16844152D01*
X8596429Y-16853676D01*
X8577381Y-16853676D01*
X8558333Y-16844152D01*
X8548810Y-16834629D01*
X8539286Y-16815581D01*
X8529762Y-16777486D01*
X8529762Y-16729867D01*
X8539286Y-16691771D01*
X8548810Y-16672724D01*
X8558333Y-16663200D01*
X8577381Y-16653676D01*
X8729762Y-16853676D02*
X8729762Y-16720343D01*
X8729762Y-16739390D02*
X8739286Y-16729867D01*
X8758333Y-16720343D01*
X8786905Y-16720343D01*
X8805952Y-16729867D01*
X8815476Y-16748914D01*
X8815476Y-16853676D01*
X8815476Y-16748914D02*
X8825000Y-16729867D01*
X8844048Y-16720343D01*
X8872619Y-16720343D01*
X8891667Y-16729867D01*
X8901190Y-16748914D01*
X8901190Y-16853676D01*
X8996429Y-16853676D02*
X8996429Y-16720343D01*
X8996429Y-16739390D02*
X9005952Y-16729867D01*
X9025000Y-16720343D01*
X9053571Y-16720343D01*
X9072619Y-16729867D01*
X9082143Y-16748914D01*
X9082143Y-16853676D01*
X9082143Y-16748914D02*
X9091667Y-16729867D01*
X9110714Y-16720343D01*
X9139286Y-16720343D01*
X9158333Y-16729867D01*
X9167857Y-16748914D01*
X9167857Y-16853676D01*
X9558333Y-16644152D02*
X9386905Y-16901295D01*
X9815476Y-16653676D02*
X9834524Y-16653676D01*
X9853571Y-16663200D01*
X9863095Y-16672724D01*
X9872619Y-16691771D01*
X9882143Y-16729867D01*
X9882143Y-16777486D01*
X9872619Y-16815581D01*
X9863095Y-16834629D01*
X9853571Y-16844152D01*
X9834524Y-16853676D01*
X9815476Y-16853676D01*
X9796429Y-16844152D01*
X9786905Y-16834629D01*
X9777381Y-16815581D01*
X9767857Y-16777486D01*
X9767857Y-16729867D01*
X9777381Y-16691771D01*
X9786905Y-16672724D01*
X9796429Y-16663200D01*
X9815476Y-16653676D01*
X9967857Y-16834629D02*
X9977381Y-16844152D01*
X9967857Y-16853676D01*
X9958333Y-16844152D01*
X9967857Y-16834629D01*
X9967857Y-16853676D01*
X10101190Y-16653676D02*
X10120238Y-16653676D01*
X10139286Y-16663200D01*
X10148810Y-16672724D01*
X10158333Y-16691771D01*
X10167857Y-16729867D01*
X10167857Y-16777486D01*
X10158333Y-16815581D01*
X10148810Y-16834629D01*
X10139286Y-16844152D01*
X10120238Y-16853676D01*
X10101190Y-16853676D01*
X10082143Y-16844152D01*
X10072619Y-16834629D01*
X10063095Y-16815581D01*
X10053571Y-16777486D01*
X10053571Y-16729867D01*
X10063095Y-16691771D01*
X10072619Y-16672724D01*
X10082143Y-16663200D01*
X10101190Y-16653676D01*
X10234524Y-16653676D02*
X10358333Y-16653676D01*
X10291667Y-16729867D01*
X10320238Y-16729867D01*
X10339286Y-16739390D01*
X10348810Y-16748914D01*
X10358333Y-16767962D01*
X10358333Y-16815581D01*
X10348810Y-16834629D01*
X10339286Y-16844152D01*
X10320238Y-16853676D01*
X10263095Y-16853676D01*
X10244048Y-16844152D01*
X10234524Y-16834629D01*
X10453571Y-16853676D02*
X10491667Y-16853676D01*
X10510714Y-16844152D01*
X10520238Y-16834629D01*
X10539286Y-16806057D01*
X10548810Y-16767962D01*
X10548810Y-16691771D01*
X10539286Y-16672724D01*
X10529762Y-16663200D01*
X10510714Y-16653676D01*
X10472619Y-16653676D01*
X10453571Y-16663200D01*
X10444048Y-16672724D01*
X10434524Y-16691771D01*
X10434524Y-16739390D01*
X10444048Y-16758438D01*
X10453571Y-16767962D01*
X10472619Y-16777486D01*
X10510714Y-16777486D01*
X10529762Y-16767962D01*
X10539286Y-16758438D01*
X10548810Y-16739390D01*
X10720238Y-16720343D02*
X10720238Y-16853676D01*
X10672619Y-16644152D02*
X10625000Y-16787010D01*
X10748810Y-16787010D01*
X10815476Y-16653676D02*
X10815476Y-16691771D01*
X10891667Y-16653676D02*
X10891667Y-16691771D01*
X11186905Y-16929867D02*
X11177381Y-16920343D01*
X11158333Y-16891771D01*
X11148810Y-16872724D01*
X11139286Y-16844152D01*
X11129762Y-16796533D01*
X11129762Y-16758438D01*
X11139286Y-16710819D01*
X11148810Y-16682248D01*
X11158333Y-16663200D01*
X11177381Y-16634628D01*
X11186905Y-16625105D01*
X11253571Y-16672724D02*
X11263095Y-16663200D01*
X11282143Y-16653676D01*
X11329762Y-16653676D01*
X11348809Y-16663200D01*
X11358333Y-16672724D01*
X11367857Y-16691771D01*
X11367857Y-16710819D01*
X11358333Y-16739390D01*
X11244048Y-16853676D01*
X11367857Y-16853676D01*
X11482143Y-16739390D02*
X11463095Y-16729867D01*
X11453571Y-16720343D01*
X11444048Y-16701295D01*
X11444048Y-16691771D01*
X11453571Y-16672724D01*
X11463095Y-16663200D01*
X11482143Y-16653676D01*
X11520238Y-16653676D01*
X11539286Y-16663200D01*
X11548809Y-16672724D01*
X11558333Y-16691771D01*
X11558333Y-16701295D01*
X11548809Y-16720343D01*
X11539286Y-16729867D01*
X11520238Y-16739390D01*
X11482143Y-16739390D01*
X11463095Y-16748914D01*
X11453571Y-16758438D01*
X11444048Y-16777486D01*
X11444048Y-16815581D01*
X11453571Y-16834629D01*
X11463095Y-16844152D01*
X11482143Y-16853676D01*
X11520238Y-16853676D01*
X11539286Y-16844152D01*
X11548809Y-16834629D01*
X11558333Y-16815581D01*
X11558333Y-16777486D01*
X11548809Y-16758438D01*
X11539286Y-16748914D01*
X11520238Y-16739390D01*
X11796428Y-16853676D02*
X11796428Y-16653676D01*
X11882143Y-16853676D02*
X11882143Y-16748914D01*
X11872619Y-16729867D01*
X11853571Y-16720343D01*
X11825000Y-16720343D01*
X11805952Y-16729867D01*
X11796428Y-16739390D01*
X12005952Y-16853676D02*
X11986905Y-16844152D01*
X11977381Y-16834629D01*
X11967857Y-16815581D01*
X11967857Y-16758438D01*
X11977381Y-16739390D01*
X11986905Y-16729867D01*
X12005952Y-16720343D01*
X12034524Y-16720343D01*
X12053571Y-16729867D01*
X12063095Y-16739390D01*
X12072619Y-16758438D01*
X12072619Y-16815581D01*
X12063095Y-16834629D01*
X12053571Y-16844152D01*
X12034524Y-16853676D01*
X12005952Y-16853676D01*
X12186905Y-16853676D02*
X12167857Y-16844152D01*
X12158333Y-16825105D01*
X12158333Y-16653676D01*
X12339286Y-16844152D02*
X12320238Y-16853676D01*
X12282143Y-16853676D01*
X12263095Y-16844152D01*
X12253571Y-16825105D01*
X12253571Y-16748914D01*
X12263095Y-16729867D01*
X12282143Y-16720343D01*
X12320238Y-16720343D01*
X12339286Y-16729867D01*
X12348809Y-16748914D01*
X12348809Y-16767962D01*
X12253571Y-16787010D01*
X12425000Y-16844152D02*
X12444048Y-16853676D01*
X12482143Y-16853676D01*
X12501190Y-16844152D01*
X12510714Y-16825105D01*
X12510714Y-16815581D01*
X12501190Y-16796533D01*
X12482143Y-16787010D01*
X12453571Y-16787010D01*
X12434524Y-16777486D01*
X12425000Y-16758438D01*
X12425000Y-16748914D01*
X12434524Y-16729867D01*
X12453571Y-16720343D01*
X12482143Y-16720343D01*
X12501190Y-16729867D01*
X12577381Y-16929867D02*
X12586905Y-16920343D01*
X12605952Y-16891771D01*
X12615476Y-16872724D01*
X12625000Y-16844152D01*
X12634524Y-16796533D01*
X12634524Y-16758438D01*
X12625000Y-16710819D01*
X12615476Y-16682248D01*
X12605952Y-16663200D01*
X12586905Y-16634628D01*
X12577381Y-16625105D01*
D16*
X7505000Y-16972200D02*
X7615000Y-17082200D01*
X7615000Y-16972200D02*
X7505000Y-17082200D01*
X7615000Y-17027200D02*
G75*
G03*
X7615000Y-17027200I-55000J0D01*
G01*
D11*
X7977381Y-17117676D02*
X7863095Y-17117676D01*
X7920238Y-17117676D02*
X7920238Y-16917676D01*
X7901190Y-16946248D01*
X7882143Y-16965295D01*
X7863095Y-16974819D01*
X8063095Y-17098629D02*
X8072619Y-17108152D01*
X8063095Y-17117676D01*
X8053571Y-17108152D01*
X8063095Y-17098629D01*
X8063095Y-17117676D01*
X8263095Y-17117676D02*
X8148809Y-17117676D01*
X8205952Y-17117676D02*
X8205952Y-16917676D01*
X8186905Y-16946248D01*
X8167857Y-16965295D01*
X8148809Y-16974819D01*
X8386905Y-16917676D02*
X8405952Y-16917676D01*
X8425000Y-16927200D01*
X8434524Y-16936724D01*
X8444048Y-16955771D01*
X8453571Y-16993867D01*
X8453571Y-17041486D01*
X8444048Y-17079581D01*
X8434524Y-17098629D01*
X8425000Y-17108152D01*
X8405952Y-17117676D01*
X8386905Y-17117676D01*
X8367857Y-17108152D01*
X8358333Y-17098629D01*
X8348809Y-17079581D01*
X8339286Y-17041486D01*
X8339286Y-16993867D01*
X8348809Y-16955771D01*
X8358333Y-16936724D01*
X8367857Y-16927200D01*
X8386905Y-16917676D01*
X8577381Y-16917676D02*
X8596429Y-16917676D01*
X8615476Y-16927200D01*
X8625000Y-16936724D01*
X8634524Y-16955771D01*
X8644048Y-16993867D01*
X8644048Y-17041486D01*
X8634524Y-17079581D01*
X8625000Y-17098629D01*
X8615476Y-17108152D01*
X8596429Y-17117676D01*
X8577381Y-17117676D01*
X8558333Y-17108152D01*
X8548810Y-17098629D01*
X8539286Y-17079581D01*
X8529762Y-17041486D01*
X8529762Y-16993867D01*
X8539286Y-16955771D01*
X8548810Y-16936724D01*
X8558333Y-16927200D01*
X8577381Y-16917676D01*
X8729762Y-17117676D02*
X8729762Y-16984343D01*
X8729762Y-17003390D02*
X8739286Y-16993867D01*
X8758333Y-16984343D01*
X8786905Y-16984343D01*
X8805952Y-16993867D01*
X8815476Y-17012914D01*
X8815476Y-17117676D01*
X8815476Y-17012914D02*
X8825000Y-16993867D01*
X8844048Y-16984343D01*
X8872619Y-16984343D01*
X8891667Y-16993867D01*
X8901190Y-17012914D01*
X8901190Y-17117676D01*
X8996429Y-17117676D02*
X8996429Y-16984343D01*
X8996429Y-17003390D02*
X9005952Y-16993867D01*
X9025000Y-16984343D01*
X9053571Y-16984343D01*
X9072619Y-16993867D01*
X9082143Y-17012914D01*
X9082143Y-17117676D01*
X9082143Y-17012914D02*
X9091667Y-16993867D01*
X9110714Y-16984343D01*
X9139286Y-16984343D01*
X9158333Y-16993867D01*
X9167857Y-17012914D01*
X9167857Y-17117676D01*
X9558333Y-16908152D02*
X9386905Y-17165295D01*
X9815476Y-16917676D02*
X9834524Y-16917676D01*
X9853571Y-16927200D01*
X9863095Y-16936724D01*
X9872619Y-16955771D01*
X9882143Y-16993867D01*
X9882143Y-17041486D01*
X9872619Y-17079581D01*
X9863095Y-17098629D01*
X9853571Y-17108152D01*
X9834524Y-17117676D01*
X9815476Y-17117676D01*
X9796429Y-17108152D01*
X9786905Y-17098629D01*
X9777381Y-17079581D01*
X9767857Y-17041486D01*
X9767857Y-16993867D01*
X9777381Y-16955771D01*
X9786905Y-16936724D01*
X9796429Y-16927200D01*
X9815476Y-16917676D01*
X9967857Y-17098629D02*
X9977381Y-17108152D01*
X9967857Y-17117676D01*
X9958333Y-17108152D01*
X9967857Y-17098629D01*
X9967857Y-17117676D01*
X10101190Y-16917676D02*
X10120238Y-16917676D01*
X10139286Y-16927200D01*
X10148810Y-16936724D01*
X10158333Y-16955771D01*
X10167857Y-16993867D01*
X10167857Y-17041486D01*
X10158333Y-17079581D01*
X10148810Y-17098629D01*
X10139286Y-17108152D01*
X10120238Y-17117676D01*
X10101190Y-17117676D01*
X10082143Y-17108152D01*
X10072619Y-17098629D01*
X10063095Y-17079581D01*
X10053571Y-17041486D01*
X10053571Y-16993867D01*
X10063095Y-16955771D01*
X10072619Y-16936724D01*
X10082143Y-16927200D01*
X10101190Y-16917676D01*
X10339286Y-16984343D02*
X10339286Y-17117676D01*
X10291667Y-16908152D02*
X10244048Y-17051010D01*
X10367857Y-17051010D01*
X10425000Y-16917676D02*
X10548810Y-16917676D01*
X10482143Y-16993867D01*
X10510714Y-16993867D01*
X10529762Y-17003390D01*
X10539286Y-17012914D01*
X10548810Y-17031962D01*
X10548810Y-17079581D01*
X10539286Y-17098629D01*
X10529762Y-17108152D01*
X10510714Y-17117676D01*
X10453571Y-17117676D01*
X10434524Y-17108152D01*
X10425000Y-17098629D01*
X10615476Y-16917676D02*
X10739286Y-16917676D01*
X10672619Y-16993867D01*
X10701190Y-16993867D01*
X10720238Y-17003390D01*
X10729762Y-17012914D01*
X10739286Y-17031962D01*
X10739286Y-17079581D01*
X10729762Y-17098629D01*
X10720238Y-17108152D01*
X10701190Y-17117676D01*
X10644048Y-17117676D01*
X10625000Y-17108152D01*
X10615476Y-17098629D01*
X10815476Y-16917676D02*
X10815476Y-16955771D01*
X10891667Y-16917676D02*
X10891667Y-16955771D01*
X11186905Y-17193867D02*
X11177381Y-17184343D01*
X11158333Y-17155771D01*
X11148810Y-17136724D01*
X11139286Y-17108152D01*
X11129762Y-17060533D01*
X11129762Y-17022438D01*
X11139286Y-16974819D01*
X11148810Y-16946248D01*
X11158333Y-16927200D01*
X11177381Y-16898629D01*
X11186905Y-16889105D01*
X11244048Y-16917676D02*
X11367857Y-16917676D01*
X11301190Y-16993867D01*
X11329762Y-16993867D01*
X11348809Y-17003390D01*
X11358333Y-17012914D01*
X11367857Y-17031962D01*
X11367857Y-17079581D01*
X11358333Y-17098629D01*
X11348809Y-17108152D01*
X11329762Y-17117676D01*
X11272619Y-17117676D01*
X11253571Y-17108152D01*
X11244048Y-17098629D01*
X11605952Y-17117676D02*
X11605952Y-16917676D01*
X11691667Y-17117676D02*
X11691667Y-17012914D01*
X11682143Y-16993867D01*
X11663095Y-16984343D01*
X11634524Y-16984343D01*
X11615476Y-16993867D01*
X11605952Y-17003390D01*
X11815476Y-17117676D02*
X11796428Y-17108152D01*
X11786905Y-17098629D01*
X11777381Y-17079581D01*
X11777381Y-17022438D01*
X11786905Y-17003390D01*
X11796428Y-16993867D01*
X11815476Y-16984343D01*
X11844048Y-16984343D01*
X11863095Y-16993867D01*
X11872619Y-17003390D01*
X11882143Y-17022438D01*
X11882143Y-17079581D01*
X11872619Y-17098629D01*
X11863095Y-17108152D01*
X11844048Y-17117676D01*
X11815476Y-17117676D01*
X11996428Y-17117676D02*
X11977381Y-17108152D01*
X11967857Y-17089105D01*
X11967857Y-16917676D01*
X12148809Y-17108152D02*
X12129762Y-17117676D01*
X12091667Y-17117676D01*
X12072619Y-17108152D01*
X12063095Y-17089105D01*
X12063095Y-17012914D01*
X12072619Y-16993867D01*
X12091667Y-16984343D01*
X12129762Y-16984343D01*
X12148809Y-16993867D01*
X12158333Y-17012914D01*
X12158333Y-17031962D01*
X12063095Y-17051010D01*
X12234524Y-17108152D02*
X12253571Y-17117676D01*
X12291667Y-17117676D01*
X12310714Y-17108152D01*
X12320238Y-17089105D01*
X12320238Y-17079581D01*
X12310714Y-17060533D01*
X12291667Y-17051010D01*
X12263095Y-17051010D01*
X12244048Y-17041486D01*
X12234524Y-17022438D01*
X12234524Y-17012914D01*
X12244048Y-16993867D01*
X12263095Y-16984343D01*
X12291667Y-16984343D01*
X12310714Y-16993867D01*
X12386905Y-17193867D02*
X12396428Y-17184343D01*
X12415476Y-17155771D01*
X12425000Y-17136724D01*
X12434524Y-17108152D01*
X12444048Y-17060533D01*
X12444048Y-17022438D01*
X12434524Y-16974819D01*
X12425000Y-16946248D01*
X12415476Y-16927200D01*
X12396428Y-16898629D01*
X12386905Y-16889105D01*
D17*
X7485000Y-17226200D02*
X7615000Y-17356200D01*
X7615000Y-17226200D02*
X7485000Y-17356200D01*
X7550000Y-17226200D02*
X7550000Y-17356200D01*
X7485000Y-17291200D02*
X7615000Y-17291200D01*
D11*
X7977381Y-17381676D02*
X7863095Y-17381676D01*
X7920238Y-17381676D02*
X7920238Y-17181676D01*
X7901190Y-17210248D01*
X7882143Y-17229295D01*
X7863095Y-17238819D01*
X8063095Y-17362629D02*
X8072619Y-17372152D01*
X8063095Y-17381676D01*
X8053571Y-17372152D01*
X8063095Y-17362629D01*
X8063095Y-17381676D01*
X8139286Y-17181676D02*
X8263095Y-17181676D01*
X8196428Y-17257867D01*
X8225000Y-17257867D01*
X8244048Y-17267390D01*
X8253571Y-17276914D01*
X8263095Y-17295962D01*
X8263095Y-17343581D01*
X8253571Y-17362629D01*
X8244048Y-17372152D01*
X8225000Y-17381676D01*
X8167857Y-17381676D01*
X8148809Y-17372152D01*
X8139286Y-17362629D01*
X8386905Y-17181676D02*
X8405952Y-17181676D01*
X8425000Y-17191200D01*
X8434524Y-17200724D01*
X8444048Y-17219771D01*
X8453571Y-17257867D01*
X8453571Y-17305486D01*
X8444048Y-17343581D01*
X8434524Y-17362629D01*
X8425000Y-17372152D01*
X8405952Y-17381676D01*
X8386905Y-17381676D01*
X8367857Y-17372152D01*
X8358333Y-17362629D01*
X8348809Y-17343581D01*
X8339286Y-17305486D01*
X8339286Y-17257867D01*
X8348809Y-17219771D01*
X8358333Y-17200724D01*
X8367857Y-17191200D01*
X8386905Y-17181676D01*
X8577381Y-17181676D02*
X8596429Y-17181676D01*
X8615476Y-17191200D01*
X8625000Y-17200724D01*
X8634524Y-17219771D01*
X8644048Y-17257867D01*
X8644048Y-17305486D01*
X8634524Y-17343581D01*
X8625000Y-17362629D01*
X8615476Y-17372152D01*
X8596429Y-17381676D01*
X8577381Y-17381676D01*
X8558333Y-17372152D01*
X8548810Y-17362629D01*
X8539286Y-17343581D01*
X8529762Y-17305486D01*
X8529762Y-17257867D01*
X8539286Y-17219771D01*
X8548810Y-17200724D01*
X8558333Y-17191200D01*
X8577381Y-17181676D01*
X8729762Y-17381676D02*
X8729762Y-17248343D01*
X8729762Y-17267390D02*
X8739286Y-17257867D01*
X8758333Y-17248343D01*
X8786905Y-17248343D01*
X8805952Y-17257867D01*
X8815476Y-17276914D01*
X8815476Y-17381676D01*
X8815476Y-17276914D02*
X8825000Y-17257867D01*
X8844048Y-17248343D01*
X8872619Y-17248343D01*
X8891667Y-17257867D01*
X8901190Y-17276914D01*
X8901190Y-17381676D01*
X8996429Y-17381676D02*
X8996429Y-17248343D01*
X8996429Y-17267390D02*
X9005952Y-17257867D01*
X9025000Y-17248343D01*
X9053571Y-17248343D01*
X9072619Y-17257867D01*
X9082143Y-17276914D01*
X9082143Y-17381676D01*
X9082143Y-17276914D02*
X9091667Y-17257867D01*
X9110714Y-17248343D01*
X9139286Y-17248343D01*
X9158333Y-17257867D01*
X9167857Y-17276914D01*
X9167857Y-17381676D01*
X9558333Y-17172152D02*
X9386905Y-17429295D01*
X9815476Y-17181676D02*
X9834524Y-17181676D01*
X9853571Y-17191200D01*
X9863095Y-17200724D01*
X9872619Y-17219771D01*
X9882143Y-17257867D01*
X9882143Y-17305486D01*
X9872619Y-17343581D01*
X9863095Y-17362629D01*
X9853571Y-17372152D01*
X9834524Y-17381676D01*
X9815476Y-17381676D01*
X9796429Y-17372152D01*
X9786905Y-17362629D01*
X9777381Y-17343581D01*
X9767857Y-17305486D01*
X9767857Y-17257867D01*
X9777381Y-17219771D01*
X9786905Y-17200724D01*
X9796429Y-17191200D01*
X9815476Y-17181676D01*
X9967857Y-17362629D02*
X9977381Y-17372152D01*
X9967857Y-17381676D01*
X9958333Y-17372152D01*
X9967857Y-17362629D01*
X9967857Y-17381676D01*
X10101190Y-17181676D02*
X10120238Y-17181676D01*
X10139286Y-17191200D01*
X10148810Y-17200724D01*
X10158333Y-17219771D01*
X10167857Y-17257867D01*
X10167857Y-17305486D01*
X10158333Y-17343581D01*
X10148810Y-17362629D01*
X10139286Y-17372152D01*
X10120238Y-17381676D01*
X10101190Y-17381676D01*
X10082143Y-17372152D01*
X10072619Y-17362629D01*
X10063095Y-17343581D01*
X10053571Y-17305486D01*
X10053571Y-17257867D01*
X10063095Y-17219771D01*
X10072619Y-17200724D01*
X10082143Y-17191200D01*
X10101190Y-17181676D01*
X10348810Y-17181676D02*
X10253571Y-17181676D01*
X10244048Y-17276914D01*
X10253571Y-17267390D01*
X10272619Y-17257867D01*
X10320238Y-17257867D01*
X10339286Y-17267390D01*
X10348810Y-17276914D01*
X10358333Y-17295962D01*
X10358333Y-17343581D01*
X10348810Y-17362629D01*
X10339286Y-17372152D01*
X10320238Y-17381676D01*
X10272619Y-17381676D01*
X10253571Y-17372152D01*
X10244048Y-17362629D01*
X10548810Y-17381676D02*
X10434524Y-17381676D01*
X10491667Y-17381676D02*
X10491667Y-17181676D01*
X10472619Y-17210248D01*
X10453571Y-17229295D01*
X10434524Y-17238819D01*
X10625000Y-17200724D02*
X10634524Y-17191200D01*
X10653571Y-17181676D01*
X10701190Y-17181676D01*
X10720238Y-17191200D01*
X10729762Y-17200724D01*
X10739286Y-17219771D01*
X10739286Y-17238819D01*
X10729762Y-17267390D01*
X10615476Y-17381676D01*
X10739286Y-17381676D01*
X10815476Y-17181676D02*
X10815476Y-17219771D01*
X10891667Y-17181676D02*
X10891667Y-17219771D01*
X11186905Y-17457867D02*
X11177381Y-17448343D01*
X11158333Y-17419771D01*
X11148810Y-17400724D01*
X11139286Y-17372152D01*
X11129762Y-17324533D01*
X11129762Y-17286438D01*
X11139286Y-17238819D01*
X11148810Y-17210248D01*
X11158333Y-17191200D01*
X11177381Y-17162629D01*
X11186905Y-17153105D01*
X11367857Y-17381676D02*
X11253571Y-17381676D01*
X11310714Y-17381676D02*
X11310714Y-17181676D01*
X11291667Y-17210248D01*
X11272619Y-17229295D01*
X11253571Y-17238819D01*
X11491667Y-17181676D02*
X11510714Y-17181676D01*
X11529762Y-17191200D01*
X11539286Y-17200724D01*
X11548809Y-17219771D01*
X11558333Y-17257867D01*
X11558333Y-17305486D01*
X11548809Y-17343581D01*
X11539286Y-17362629D01*
X11529762Y-17372152D01*
X11510714Y-17381676D01*
X11491667Y-17381676D01*
X11472619Y-17372152D01*
X11463095Y-17362629D01*
X11453571Y-17343581D01*
X11444048Y-17305486D01*
X11444048Y-17257867D01*
X11453571Y-17219771D01*
X11463095Y-17200724D01*
X11472619Y-17191200D01*
X11491667Y-17181676D01*
X11796428Y-17381676D02*
X11796428Y-17181676D01*
X11882143Y-17381676D02*
X11882143Y-17276914D01*
X11872619Y-17257867D01*
X11853571Y-17248343D01*
X11825000Y-17248343D01*
X11805952Y-17257867D01*
X11796428Y-17267390D01*
X12005952Y-17381676D02*
X11986905Y-17372152D01*
X11977381Y-17362629D01*
X11967857Y-17343581D01*
X11967857Y-17286438D01*
X11977381Y-17267390D01*
X11986905Y-17257867D01*
X12005952Y-17248343D01*
X12034524Y-17248343D01*
X12053571Y-17257867D01*
X12063095Y-17267390D01*
X12072619Y-17286438D01*
X12072619Y-17343581D01*
X12063095Y-17362629D01*
X12053571Y-17372152D01*
X12034524Y-17381676D01*
X12005952Y-17381676D01*
X12186905Y-17381676D02*
X12167857Y-17372152D01*
X12158333Y-17353105D01*
X12158333Y-17181676D01*
X12339286Y-17372152D02*
X12320238Y-17381676D01*
X12282143Y-17381676D01*
X12263095Y-17372152D01*
X12253571Y-17353105D01*
X12253571Y-17276914D01*
X12263095Y-17257867D01*
X12282143Y-17248343D01*
X12320238Y-17248343D01*
X12339286Y-17257867D01*
X12348809Y-17276914D01*
X12348809Y-17295962D01*
X12253571Y-17315010D01*
X12425000Y-17372152D02*
X12444048Y-17381676D01*
X12482143Y-17381676D01*
X12501190Y-17372152D01*
X12510714Y-17353105D01*
X12510714Y-17343581D01*
X12501190Y-17324533D01*
X12482143Y-17315010D01*
X12453571Y-17315010D01*
X12434524Y-17305486D01*
X12425000Y-17286438D01*
X12425000Y-17276914D01*
X12434524Y-17257867D01*
X12453571Y-17248343D01*
X12482143Y-17248343D01*
X12501190Y-17257867D01*
X12577381Y-17457867D02*
X12586905Y-17448343D01*
X12605952Y-17419771D01*
X12615476Y-17400724D01*
X12625000Y-17372152D01*
X12634524Y-17324533D01*
X12634524Y-17286438D01*
X12625000Y-17238819D01*
X12615476Y-17210248D01*
X12605952Y-17191200D01*
X12586905Y-17162629D01*
X12577381Y-17153105D01*
X7415000Y-17455200D02*
X7615000Y-17655200D01*
X7615000Y-17455200D02*
X7415000Y-17655200D01*
X7585711Y-17625911D02*
X7585711Y-17484489D01*
X7444289Y-17484489D01*
X7444289Y-17625911D01*
X7585711Y-17625911D01*
X7853571Y-17445676D02*
X7977381Y-17445676D01*
X7910714Y-17521867D01*
X7939286Y-17521867D01*
X7958333Y-17531390D01*
X7967857Y-17540914D01*
X7977381Y-17559962D01*
X7977381Y-17607581D01*
X7967857Y-17626629D01*
X7958333Y-17636152D01*
X7939286Y-17645676D01*
X7882143Y-17645676D01*
X7863095Y-17636152D01*
X7853571Y-17626629D01*
X8063095Y-17626629D02*
X8072619Y-17636152D01*
X8063095Y-17645676D01*
X8053571Y-17636152D01*
X8063095Y-17626629D01*
X8063095Y-17645676D01*
X8148809Y-17464724D02*
X8158333Y-17455200D01*
X8177381Y-17445676D01*
X8225000Y-17445676D01*
X8244048Y-17455200D01*
X8253571Y-17464724D01*
X8263095Y-17483771D01*
X8263095Y-17502819D01*
X8253571Y-17531390D01*
X8139286Y-17645676D01*
X8263095Y-17645676D01*
X8386905Y-17445676D02*
X8405952Y-17445676D01*
X8425000Y-17455200D01*
X8434524Y-17464724D01*
X8444048Y-17483771D01*
X8453571Y-17521867D01*
X8453571Y-17569486D01*
X8444048Y-17607581D01*
X8434524Y-17626629D01*
X8425000Y-17636152D01*
X8405952Y-17645676D01*
X8386905Y-17645676D01*
X8367857Y-17636152D01*
X8358333Y-17626629D01*
X8348809Y-17607581D01*
X8339286Y-17569486D01*
X8339286Y-17521867D01*
X8348809Y-17483771D01*
X8358333Y-17464724D01*
X8367857Y-17455200D01*
X8386905Y-17445676D01*
X8577381Y-17445676D02*
X8596429Y-17445676D01*
X8615476Y-17455200D01*
X8625000Y-17464724D01*
X8634524Y-17483771D01*
X8644048Y-17521867D01*
X8644048Y-17569486D01*
X8634524Y-17607581D01*
X8625000Y-17626629D01*
X8615476Y-17636152D01*
X8596429Y-17645676D01*
X8577381Y-17645676D01*
X8558333Y-17636152D01*
X8548810Y-17626629D01*
X8539286Y-17607581D01*
X8529762Y-17569486D01*
X8529762Y-17521867D01*
X8539286Y-17483771D01*
X8548810Y-17464724D01*
X8558333Y-17455200D01*
X8577381Y-17445676D01*
X8729762Y-17645676D02*
X8729762Y-17512343D01*
X8729762Y-17531390D02*
X8739286Y-17521867D01*
X8758333Y-17512343D01*
X8786905Y-17512343D01*
X8805952Y-17521867D01*
X8815476Y-17540914D01*
X8815476Y-17645676D01*
X8815476Y-17540914D02*
X8825000Y-17521867D01*
X8844048Y-17512343D01*
X8872619Y-17512343D01*
X8891667Y-17521867D01*
X8901190Y-17540914D01*
X8901190Y-17645676D01*
X8996429Y-17645676D02*
X8996429Y-17512343D01*
X8996429Y-17531390D02*
X9005952Y-17521867D01*
X9025000Y-17512343D01*
X9053571Y-17512343D01*
X9072619Y-17521867D01*
X9082143Y-17540914D01*
X9082143Y-17645676D01*
X9082143Y-17540914D02*
X9091667Y-17521867D01*
X9110714Y-17512343D01*
X9139286Y-17512343D01*
X9158333Y-17521867D01*
X9167857Y-17540914D01*
X9167857Y-17645676D01*
X9558333Y-17436152D02*
X9386905Y-17693295D01*
X9815476Y-17445676D02*
X9834524Y-17445676D01*
X9853571Y-17455200D01*
X9863095Y-17464724D01*
X9872619Y-17483771D01*
X9882143Y-17521867D01*
X9882143Y-17569486D01*
X9872619Y-17607581D01*
X9863095Y-17626629D01*
X9853571Y-17636152D01*
X9834524Y-17645676D01*
X9815476Y-17645676D01*
X9796429Y-17636152D01*
X9786905Y-17626629D01*
X9777381Y-17607581D01*
X9767857Y-17569486D01*
X9767857Y-17521867D01*
X9777381Y-17483771D01*
X9786905Y-17464724D01*
X9796429Y-17455200D01*
X9815476Y-17445676D01*
X9967857Y-17626629D02*
X9977381Y-17636152D01*
X9967857Y-17645676D01*
X9958333Y-17636152D01*
X9967857Y-17626629D01*
X9967857Y-17645676D01*
X10167857Y-17645676D02*
X10053571Y-17645676D01*
X10110714Y-17645676D02*
X10110714Y-17445676D01*
X10091667Y-17474248D01*
X10072619Y-17493295D01*
X10053571Y-17502819D01*
X10244048Y-17464724D02*
X10253571Y-17455200D01*
X10272619Y-17445676D01*
X10320238Y-17445676D01*
X10339286Y-17455200D01*
X10348810Y-17464724D01*
X10358333Y-17483771D01*
X10358333Y-17502819D01*
X10348810Y-17531390D01*
X10234524Y-17645676D01*
X10358333Y-17645676D01*
X10529762Y-17445676D02*
X10491667Y-17445676D01*
X10472619Y-17455200D01*
X10463095Y-17464724D01*
X10444048Y-17493295D01*
X10434524Y-17531390D01*
X10434524Y-17607581D01*
X10444048Y-17626629D01*
X10453571Y-17636152D01*
X10472619Y-17645676D01*
X10510714Y-17645676D01*
X10529762Y-17636152D01*
X10539286Y-17626629D01*
X10548810Y-17607581D01*
X10548810Y-17559962D01*
X10539286Y-17540914D01*
X10529762Y-17531390D01*
X10510714Y-17521867D01*
X10472619Y-17521867D01*
X10453571Y-17531390D01*
X10444048Y-17540914D01*
X10434524Y-17559962D01*
X10672619Y-17445676D02*
X10691667Y-17445676D01*
X10710714Y-17455200D01*
X10720238Y-17464724D01*
X10729762Y-17483771D01*
X10739286Y-17521867D01*
X10739286Y-17569486D01*
X10729762Y-17607581D01*
X10720238Y-17626629D01*
X10710714Y-17636152D01*
X10691667Y-17645676D01*
X10672619Y-17645676D01*
X10653571Y-17636152D01*
X10644048Y-17626629D01*
X10634524Y-17607581D01*
X10625000Y-17569486D01*
X10625000Y-17521867D01*
X10634524Y-17483771D01*
X10644048Y-17464724D01*
X10653571Y-17455200D01*
X10672619Y-17445676D01*
X10815476Y-17445676D02*
X10815476Y-17483771D01*
X10891667Y-17445676D02*
X10891667Y-17483771D01*
X11186905Y-17721867D02*
X11177381Y-17712343D01*
X11158333Y-17683771D01*
X11148810Y-17664724D01*
X11139286Y-17636152D01*
X11129762Y-17588533D01*
X11129762Y-17550438D01*
X11139286Y-17502819D01*
X11148810Y-17474248D01*
X11158333Y-17455200D01*
X11177381Y-17426629D01*
X11186905Y-17417105D01*
X11348809Y-17512343D02*
X11348809Y-17645676D01*
X11301190Y-17436152D02*
X11253571Y-17579010D01*
X11377381Y-17579010D01*
X11605952Y-17645676D02*
X11605952Y-17445676D01*
X11691667Y-17645676D02*
X11691667Y-17540914D01*
X11682143Y-17521867D01*
X11663095Y-17512343D01*
X11634524Y-17512343D01*
X11615476Y-17521867D01*
X11605952Y-17531390D01*
X11815476Y-17645676D02*
X11796428Y-17636152D01*
X11786905Y-17626629D01*
X11777381Y-17607581D01*
X11777381Y-17550438D01*
X11786905Y-17531390D01*
X11796428Y-17521867D01*
X11815476Y-17512343D01*
X11844048Y-17512343D01*
X11863095Y-17521867D01*
X11872619Y-17531390D01*
X11882143Y-17550438D01*
X11882143Y-17607581D01*
X11872619Y-17626629D01*
X11863095Y-17636152D01*
X11844048Y-17645676D01*
X11815476Y-17645676D01*
X11996428Y-17645676D02*
X11977381Y-17636152D01*
X11967857Y-17617105D01*
X11967857Y-17445676D01*
X12148809Y-17636152D02*
X12129762Y-17645676D01*
X12091667Y-17645676D01*
X12072619Y-17636152D01*
X12063095Y-17617105D01*
X12063095Y-17540914D01*
X12072619Y-17521867D01*
X12091667Y-17512343D01*
X12129762Y-17512343D01*
X12148809Y-17521867D01*
X12158333Y-17540914D01*
X12158333Y-17559962D01*
X12063095Y-17579010D01*
X12234524Y-17636152D02*
X12253571Y-17645676D01*
X12291667Y-17645676D01*
X12310714Y-17636152D01*
X12320238Y-17617105D01*
X12320238Y-17607581D01*
X12310714Y-17588533D01*
X12291667Y-17579010D01*
X12263095Y-17579010D01*
X12244048Y-17569486D01*
X12234524Y-17550438D01*
X12234524Y-17540914D01*
X12244048Y-17521867D01*
X12263095Y-17512343D01*
X12291667Y-17512343D01*
X12310714Y-17521867D01*
X12386905Y-17721867D02*
X12396428Y-17712343D01*
X12415476Y-17683771D01*
X12425000Y-17664724D01*
X12434524Y-17636152D01*
X12444048Y-17588533D01*
X12444048Y-17550438D01*
X12434524Y-17502819D01*
X12425000Y-17474248D01*
X12415476Y-17455200D01*
X12396428Y-17426629D01*
X12386905Y-17417105D01*
X12748809Y-17721867D02*
X12739286Y-17712343D01*
X12720238Y-17683771D01*
X12710714Y-17664724D01*
X12701190Y-17636152D01*
X12691667Y-17588533D01*
X12691667Y-17550438D01*
X12701190Y-17502819D01*
X12710714Y-17474248D01*
X12720238Y-17455200D01*
X12739286Y-17426629D01*
X12748809Y-17417105D01*
X12825000Y-17512343D02*
X12825000Y-17645676D01*
X12825000Y-17531390D02*
X12834524Y-17521867D01*
X12853571Y-17512343D01*
X12882143Y-17512343D01*
X12901190Y-17521867D01*
X12910714Y-17540914D01*
X12910714Y-17645676D01*
X13034524Y-17645676D02*
X13015476Y-17636152D01*
X13005952Y-17626629D01*
X12996428Y-17607581D01*
X12996428Y-17550438D01*
X13005952Y-17531390D01*
X13015476Y-17521867D01*
X13034524Y-17512343D01*
X13063095Y-17512343D01*
X13082143Y-17521867D01*
X13091667Y-17531390D01*
X13101190Y-17550438D01*
X13101190Y-17607581D01*
X13091667Y-17626629D01*
X13082143Y-17636152D01*
X13063095Y-17645676D01*
X13034524Y-17645676D01*
X13158333Y-17512343D02*
X13234524Y-17512343D01*
X13186905Y-17445676D02*
X13186905Y-17617105D01*
X13196428Y-17636152D01*
X13215476Y-17645676D01*
X13234524Y-17645676D01*
X13453571Y-17512343D02*
X13453571Y-17712343D01*
X13453571Y-17521867D02*
X13472619Y-17512343D01*
X13510714Y-17512343D01*
X13529762Y-17521867D01*
X13539286Y-17531390D01*
X13548809Y-17550438D01*
X13548809Y-17607581D01*
X13539286Y-17626629D01*
X13529762Y-17636152D01*
X13510714Y-17645676D01*
X13472619Y-17645676D01*
X13453571Y-17636152D01*
X13663095Y-17645676D02*
X13644048Y-17636152D01*
X13634524Y-17617105D01*
X13634524Y-17445676D01*
X13825000Y-17645676D02*
X13825000Y-17540914D01*
X13815476Y-17521867D01*
X13796428Y-17512343D01*
X13758333Y-17512343D01*
X13739286Y-17521867D01*
X13825000Y-17636152D02*
X13805952Y-17645676D01*
X13758333Y-17645676D01*
X13739286Y-17636152D01*
X13729762Y-17617105D01*
X13729762Y-17598057D01*
X13739286Y-17579010D01*
X13758333Y-17569486D01*
X13805952Y-17569486D01*
X13825000Y-17559962D01*
X13891667Y-17512343D02*
X13967857Y-17512343D01*
X13920238Y-17445676D02*
X13920238Y-17617105D01*
X13929762Y-17636152D01*
X13948809Y-17645676D01*
X13967857Y-17645676D01*
X14110714Y-17636152D02*
X14091667Y-17645676D01*
X14053571Y-17645676D01*
X14034524Y-17636152D01*
X14025000Y-17617105D01*
X14025000Y-17540914D01*
X14034524Y-17521867D01*
X14053571Y-17512343D01*
X14091667Y-17512343D01*
X14110714Y-17521867D01*
X14120238Y-17540914D01*
X14120238Y-17559962D01*
X14025000Y-17579010D01*
X14291667Y-17645676D02*
X14291667Y-17445676D01*
X14291667Y-17636152D02*
X14272619Y-17645676D01*
X14234524Y-17645676D01*
X14215476Y-17636152D01*
X14205952Y-17626629D01*
X14196428Y-17607581D01*
X14196428Y-17550438D01*
X14205952Y-17531390D01*
X14215476Y-17521867D01*
X14234524Y-17512343D01*
X14272619Y-17512343D01*
X14291667Y-17521867D01*
X14367857Y-17721867D02*
X14377381Y-17712343D01*
X14396428Y-17683771D01*
X14405952Y-17664724D01*
X14415476Y-17636152D01*
X14425000Y-17588533D01*
X14425000Y-17550438D01*
X14415476Y-17502819D01*
X14405952Y-17474248D01*
X14396428Y-17455200D01*
X14377381Y-17426629D01*
X14367857Y-17417105D01*
M02*
